/* XPM */
static char * bitcoin64_xpm[] = {
"64 64 67 1",
" 	c None",
".	c #DE0000",
"+	c #DD0000",
"@	c #DB0000",
"#	c #DA0000",
"$	c #D80000",
"%	c #D60000",
"&	c #D40000",
"*	c #D20000",
"=	c #D10000",
"-	c #CF0000",
";	c #CD0000",
">	c #CC0000",
",	c #CB0000",
"'	c #B30000",
")	c #B10000",
"!	c #B00000",
"~	c #AE0000",
"{	c #AC0000",
"]	c #AA0000",
"^	c #A80000",
"/	c #A70000",
"(	c #A60000",
"_	c #A40000",
":	c #A30000",
"<	c #A20000",
"[	c #A10000",
"}	c #E00000",
"|	c #DF0000",
"1	c #DC0000",
"2	c #D90000",
"3	c #D70000",
"4	c #D50000",
"5	c #CE0000",
"6	c #C90000",
"7	c #B50000",
"8	c #B20000",
"9	c #AF0000",
"0	c #AB0000",
"a	c #A50000",
"b	c #A00000",
"c	c #E10000",
"d	c #D30000",
"e	c #CA0000",
"f	c #B70000",
"g	c #B60000",
"h	c #AD0000",
"i	c #A90000",
"j	c #D00000",
"k	c #C80000",
"l	c #BA0000",
"m	c #B80000",
"n	c #B40000",
"o	c #B90000",
"p	c #BD0000",
"q	c #BB0000",
"r	c #BE0000",
"s	c #C00000",
"t	c #BF0000",
"u	c #C20000",
"v	c #C10000",
"w	c #C40000",
"x	c #C60000",
"y	c #C50000",
"z	c #C30000",
"A	c #C70000",
"B	c #BC0000",
"                                                                ",
"                                                                ",
"                                                                ",
"                                                                ",
"                                                                ",
"                                                                ",
"                                                                ",
"                                                                ",
"                                                                ",
"                                                                ",
"                                                                ",
"                                                                ",
"                                                                ",
"                                                                ",
"                                                                ",
"                                                                ",
"                                                                ",
"         .++@#$$%&&*=-;>,              ')!~~{]]^/(_:<[[         ",
"        }|.+1#2$34&*=-5>,6            7'8)9~{0]^^(a_:<[b        ",
"        c}..+@#2$%4d*=-5>e6          fg7'8!~h{]i^/(__<<[        ",
"        c}|.+1##$3%&d=j5>,6k        lmf7n8)!~h0]i^(a_:<         ",
"         c}|+           5>,6        lofg           (a_:         ",
"          }|.+          5;,ek      pqlof          //a_          ",
"          c}|.+          5>e6      rpqo          i^/(a          ",
"           }|.+           ;>ek    stpq           ]i^(           ",
"           c}|.+          5>e6   uvtrp          {0]^/           ",
"            }|.+           ;>ek  wuvt           h{]i            ",
"            c}|.+          ;>,6kxyzvs          9h{0             ",
"             }||+           ;,e6Aywu           !9h{             ",
"              }|.+          ;;,6kxw           8!9~              ",
"              }|..1          ;,ekAx          n')!9              ",
"               }|.+           ;,ek           7'8!               ",
"               }|..1          ;>ek          fg7'8               ",
"                }|.+         -5>,ek         mg7'                ",
"                 }..+       *=-5>e6A       lomg                 ",
"                 }|.+       *=-5>,6k      pBlmf                 ",
"                  }|++     4&*=-;>,6A     rBlo                  ",
"                  }|.+1    %&d=  ;,ek    srpql                  ",
"                   }|.1   3%4d    >e6k   vsrp                   ",
"                   }|.+1  $3%&    ;>ek  zuvt                    ",
"                    }|.1 #2$%      >e6A yzvt                    ",
"                     |.+1@#$3      ;>e6Ayzu                     ",
"                     }|.+1#2        >,6Axyz                     ",
"                      }|+1@         ;>e6Ay                      ",
"                      }|.+1          >,6kx                      ",
"                       }|+            >ek                       ",
"                        |              ,                        ",
"                                                                ",
"                                                                ",
"                                                                ",
"                                                                ",
"                                                                ",
"                                                                ",
"                                                                ",
"                                                                ",
"                                                                ",
"                                                                ",
"                                                                ",
"                                                                ",
"                                                                ",
"                                                                ",
"                                                                ",
"                                                                ",
"                                                                "};
