/* XPM */
static char * bitcoin32_xpm[] = {
"32 32 59 1",
" 	c None",
".	c #E00000",
"+	c #DE0000",
"@	c #DC0000",
"#	c #D90000",
"$	c #D60000",
"%	c #D40000",
"&	c #D10000",
"*	c #CE0000",
"=	c #CB0000",
"-	c #B50000",
";	c #B20000",
">	c #AF0000",
",	c #AC0000",
"'	c #AA0000",
")	c #A70000",
"!	c #A50000",
"~	c #A30000",
"{	c #A10000",
"]	c #E10000",
"^	c #DF0000",
"/	c #DD0000",
"(	c #DB0000",
"_	c #D80000",
":	c #D50000",
"<	c #D20000",
"[	c #CF0000",
"}	c #CC0000",
"|	c #CA0000",
"1	c #B90000",
"2	c #B60000",
"3	c #B30000",
"4	c #B10000",
"5	c #AE0000",
"6	c #AB0000",
"7	c #A90000",
"8	c #A60000",
"9	c #A40000",
"0	c #A20000",
"a	c #CD0000",
"b	c #C80000",
"c	c #BE0000",
"d	c #BC0000",
"e	c #C90000",
"f	c #C00000",
"g	c #BD0000",
"h	c #C50000",
"i	c #C20000",
"j	c #AD0000",
"k	c #C60000",
"l	c #C40000",
"m	c #B00000",
"n	c #B70000",
"o	c #B40000",
"p	c #D30000",
"q	c #BA0000",
"r	c #D70000",
"s	c #C10000",
"t	c #DA0000",
"                                ",
"                                ",
"                                ",
"                                ",
"                                ",
"                                ",
"                                ",
"                                ",
"                                ",
"    .+@#$%&*=      -;>,')!~{    ",
"    ]^/(_:<[}|    1234567890    ",
"     .+     a=b  cd1     )!     ",
"      ^/     ae  fg     67      ",
"      .+     a=ehi      j'      ",
"       ./     a|kl     45       ",
"       .+      }e      ;m       ",
"        ./     a|     no        ",
"        .+/   <[=e   d12        ",
"         ./  $p&a|   cq         ",
"          ^/ r:  }e if          ",
"          ./(#   a=bls          ",
"           ^/t    }ek           ",
"           ^+      =b           ",
"                                ",
"                                ",
"                                ",
"                                ",
"                                ",
"                                ",
"                                ",
"                                ",
"                                "};
