/* XPM */
static char * bitcoin128_xpm[] = {
"128 128 67 1",
" 	c None",
".	c #DF0000",
"+	c #DE0000",
"@	c #DD0000",
"#	c #DC0000",
"$	c #DB0000",
"%	c #DA0000",
"&	c #D90000",
"*	c #D80000",
"=	c #D70000",
"-	c #D60000",
";	c #D50000",
">	c #D40000",
",	c #D30000",
"'	c #D20000",
")	c #D10000",
"!	c #D00000",
"~	c #CF0000",
"{	c #CE0000",
"]	c #CD0000",
"^	c #CC0000",
"/	c #CB0000",
"(	c #CA0000",
"_	c #C90000",
":	c #B50000",
"<	c #B40000",
"[	c #B30000",
"}	c #B20000",
"|	c #B10000",
"1	c #B00000",
"2	c #AF0000",
"3	c #AE0000",
"4	c #AD0000",
"5	c #AC0000",
"6	c #AB0000",
"7	c #AA0000",
"8	c #A90000",
"9	c #A80000",
"0	c #A70000",
"a	c #A60000",
"b	c #A50000",
"c	c #A40000",
"d	c #A30000",
"e	c #A20000",
"f	c #A10000",
"g	c #A00000",
"h	c #E00000",
"i	c #B60000",
"j	c #C80000",
"k	c #E10000",
"l	c #B70000",
"m	c #B80000",
"n	c #B90000",
"o	c #BA0000",
"p	c #BB0000",
"q	c #BC0000",
"r	c #BE0000",
"s	c #BD0000",
"t	c #BF0000",
"u	c #C00000",
"v	c #C10000",
"w	c #C20000",
"x	c #C40000",
"y	c #C30000",
"z	c #C50000",
"A	c #C60000",
"B	c #C70000",
"                                                                                                                                ",
"                                                                                                                                ",
"                                                                                                                                ",
"                                                                                                                                ",
"                                                                                                                                ",
"                                                                                                                                ",
"                                                                                                                                ",
"                                                                                                                                ",
"                                                                                                                                ",
"                                                                                                                                ",
"                                                                                                                                ",
"                                                                                                                                ",
"                                                                                                                                ",
"                                                                                                                                ",
"                                                                                                                                ",
"                                                                                                                                ",
"                                                                                                                                ",
"                                                                                                                                ",
"                                                                                                                                ",
"                                                                                                                                ",
"                                                                                                                                ",
"                                                                                                                                ",
"                                                                                                                                ",
"                                                                                                                                ",
"                                                                                                                                ",
"                                                                                                                                ",
"                                                                                                                                ",
"                                                                                                                                ",
"                                                                                                                                ",
"                                                                                                                                ",
"                                                                                                                                ",
"                                                                                                                                ",
"                                                                                                                                ",
"                                                                                                                                ",
"                                                                                                                                ",
"                 ..++@@#$$%%&**=--;>>,'))!~{{]^//(_                         :<[[}|1123345567789900abbccddeeffgg                 ",
"                hh..++@##$$%&&**=-;;>,'')!!~{{]^/((_                       i:<<[}}|122344566788990aabbccddeeffg                 ",
"                hh..++@@##$%%&**=--;>>,'')!~{{]^^/(_j                      ii:<[[}|1123345567789900aabccddeefffg                ",
"                khh..++@##$$%&&**=--;>,,')!!~{{]^/((_j                    lli:<<[}}|122344566788990aabbccddeeffg                ",
"                khhh.++@@##$%%&**=--;>>,'')!~~{]^^/(_j                    mlii:<<[}|1123345567789900aabccddeefff                ",
"                 khh..++@##$$%%&**=--;>,,')!!~{{]^/((_j                  nmmli:<<[}}|112344566778990aabbccddeef                 ",
"                 khhh.++@@##$%%&&*==-;;>,'')!~{{]^^/(_j                 oonmlii:<<[}||122345567788900aabccddeee                 ",
"                  khh..++@                     {{]^/((_j                ponmmli::                    aabbccdde                  ",
"                  kkhh.++@@                     {]^^/(__j              qpoonmlli                     0aabcccd                   ",
"                   khh..++@@                    {{]^/((_j              qqponmml                     90aabbccd                   ",
"                   kkhh.+++@                     {]^^/((_j            rsqpoonml                     900aabcc                    ",
"                    khh..++@@                     {]^//(_j            rsqqponn                     8990aabbc                    ",
"                     khh..++@                     {]^^/((_j          trrsqpoon                    788900aab                     ",
"                     khh..++@@                     {]^^/(_j         uutrsqqpo                     778990aab                     ",
"                      khh..++@                     {]]^/((_j        vutrrsqp                     66788990a                      ",
"                      khh..++@@                     {]^^/(_jj      wvuutrssq                     56778990                       ",
"                       khh..++@#                     {]^/((_j      wwvutrrs                     456678899                       ",
"                        hh..++@@                     {]^^/(__j    xywvuutrs                     45567789                        ",
"                        khh..++@@                     {]^/((_j    xywwvutt                     344566788                        ",
"                         khh.++@@                     {]^^/(__j  zxxywvvut                    233455677                         ",
"                         khh..++@@                     {]^/((_j AAzxyywvu                     223445667                         ",
"                          khh.++@@#                    {]^^/(__jBAzzxywv                     112334556                          ",
"                          khh..++@#                     ]]^/((_jBBAzxxyw                     |1123445                           ",
"                           hhh.++@@#                     ]^^/(__jBAAzxy                     }||123344                           ",
"                            hh..++@#                     ]]^/((_jjBAzxx                     [}|11234                            ",
"                            hhh.+++@#                     ]^^/((_jBAAz                     [[}||1233                            ",
"                             hh..++@@                     ]]^//(_jjBAz                    :<[}}|112                             ",
"                             hhh..++@#                     ]^^/((_jBA                     :<<[}}|12                             ",
"                              hh..++@@#                    {]^^/(_jB                     i::<[}}|1                              ",
"                              hhh..++@#                    {]]^/((_j                     li:<<[}|                               ",
"                               hh..++@@#                   ~{]^^/(_jj                   mlii:<[[}                               ",
"                                hh..++@#                  !~{]]^/((_jB                  mmli:<<[                                ",
"                                hh..++@@#                 !~{{]^^/(_jj                 nnmlii:<[                                ",
"                                 hh..++@#                )!!~{{]^/((_jB               oonmmli::                                 ",
"                                 hhh.++@@#               ')!~~{]^^/(_jj               poonmlii                                  ",
"                                  hh..++@##             ,')!!~{{]^/((_jB             qpponmmli                                  ",
"                                  hhh.++@@#            >,'')!~~{]^^/(_jj             sqpoonml                                   ",
"                                   hh..++@@#           >>,')!!~ ]]^/((_jB           rsqqponnm                                   ",
"                                    hh.++@@#          ;>>,'')!!  ]^^/(__jB         trrsqpoon                                    ",
"                                    hh..++@@#         -;>>,'))    ]^/((_jB         ttrsqqpon                                    ",
"                                     hh.++@@#        =-;>>,'')    ]^^/((_jB       vutrrsqpp                                     ",
"                                     hh..++@@#      ==--;>>,'      ]^//(_jB       vuutrsqq                                      ",
"                                      hh.+++@##     *==-;;>,       ]]^/((_jB     wwvutrrsq                                      ",
"                                       h..++@@#    &**=--;>>        ]^^/(_jBB    ywvuutrs                                       ",
"                                       hh..++@##   &&*==-;;          ]^/((_jB   xywwvutrr                                       ",
"                                        h..++@@#  %%&**=--;          ]^^/(_jjB zzxywvuut                                        ",
"                                        hh..++@## $%&&*==-            ]^/((_jB Azxywwvut                                        ",
"                                         h..++@@#$$%%&**=-            ]^^/(_jjBAzxxywvv                                         ",
"                                         hh..++@##$$%&&**              ]^/((_jBAAzxyww                                          ",
"                                          h..++@@##$%%&*               ]^^/(_jjBAzxxyw                                          ",
"                                           h..++@##$$%%&                ]^/((_jBAAzxy                                           ",
"                                           h..++@@##$%%                  ^^/(_jjBAzzx                                           ",
"                                            h..++@##$$%                  ]^/((_jBBAz                                            ",
"                                            hh.++@@##$                    ]^/(_jjBA                                             ",
"                                             h..++@##$                    ]^/((_jjB                                             ",
"                                             hh.++@@#                      ]^/((_j                                              ",
"                                              h..++@                       ]^/((_j                                              ",
"                                               ...+                         ^^/((                                               ",
"                                                                                                                                ",
"                                                                                                                                ",
"                                                                                                                                ",
"                                                                                                                                ",
"                                                                                                                                ",
"                                                                                                                                ",
"                                                                                                                                ",
"                                                                                                                                ",
"                                                                                                                                ",
"                                                                                                                                ",
"                                                                                                                                ",
"                                                                                                                                ",
"                                                                                                                                ",
"                                                                                                                                ",
"                                                                                                                                ",
"                                                                                                                                ",
"                                                                                                                                ",
"                                                                                                                                ",
"                                                                                                                                ",
"                                                                                                                                ",
"                                                                                                                                ",
"                                                                                                                                ",
"                                                                                                                                ",
"                                                                                                                                ",
"                                                                                                                                ",
"                                                                                                                                ",
"                                                                                                                                ",
"                                                                                                                                ",
"                                                                                                                                ",
"                                                                                                                                ",
"                                                                                                                                ",
"                                                                                                                                ",
"                                                                                                                                ",
"                                                                                                                                ",
"                                                                                                                                "};
