/* XPM */
static char * bitcoin16_xpm[] = {
"16 16 27 1",
" 	c None",
".	c #DF0000",
"+	c #DA0000",
"@	c #D50000",
"#	c #CF0000",
"$	c #B00000",
"%	c #AB0000",
"&	c #A60000",
"*	c #A20000",
"=	c #E00000",
"-	c #DD0000",
";	c #CB0000",
">	c #B90000",
",	c #A70000",
"'	c #A40000",
")	c #CA0000",
"!	c #C20000",
"~	c #DE0000",
"{	c #CC0000",
"]	c #C60000",
"^	c #B30000",
"/	c #AE0000",
"(	c #B70000",
"_	c #D30000",
":	c #C00000",
"<	c #DB0000",
"[	c #C40000",
"                ",
"                ",
"                ",
"                ",
"  .+@#    $%&*  ",
"  =-  ;  >  ,'  ",
"   .   )!   %   ",
"   =~  {]  ^/   ",
"    .  #)  (    ",
"     ~ _{ :     ",
"     .<  )[     ",
"                ",
"                ",
"                ",
"                ",
"                "};
