/* XPM */
static char *wagerr32[] = {
/* columns rows colors chars-per-pixel */
"32 32 101 2 ",
"   c None",
".  c #9F0000",
"X  c #A40000",
"o  c #AB0000",
"O  c #B40000",
"+  c #BB0000",
"@  c #B60909",
"#  c #BD0909",
"$  c #AC1313",
"%  c #B41414",
"&  c #BF1818",
"*  c #B62727",
"=  c #BB3B3B",
"-  c #C30000",
";  c #CC0000",
":  c #D30000",
">  c #DC0000",
",  c #D00909",
"<  c #DF0808",
"1  c #C41010",
"2  c #C81717",
"3  c #CD1A1A",
"4  c #DA1515",
"5  c #D41C1C",
"6  c #D81E1E",
"7  c #E40000",
"8  c #E00B0B",
"9  c #E01414",
"0  c #E11919",
"q  c #C42121",
"w  c #C82020",
"e  c #C92B2B",
"r  c #D72727",
"t  c #DD2525",
"y  c #D42E2E",
"u  c #C43939",
"i  c #D13434",
"p  c #D83131",
"a  c #D33C3C",
"s  c #E32727",
"d  c #E42D2D",
"f  c #E03333",
"g  c #E33E3E",
"h  c #CD4A4A",
"j  c #D34444",
"k  c #D94141",
"l  c #D54A4A",
"z  c #D84848",
"x  c #CB5454",
"c  c #CC5D5D",
"v  c #D05E5E",
"b  c #DC5D5D",
"n  c #E44040",
"m  c #E45151",
"M  c #E85252",
"N  c #E35C5C",
"B  c #EA5C5C",
"V  c #C96060",
"C  c #D76666",
"Z  c #D96969",
"A  c #D17272",
"S  c #DC7B7B",
"D  c #E36363",
"F  c #EB7171",
"G  c #E37D7D",
"H  c #EA7B7B",
"J  c #D98383",
"K  c #DF8A8A",
"L  c #DA9393",
"P  c #E78181",
"I  c #EB8383",
"U  c #E28888",
"Y  c #E29494",
"T  c #ED9292",
"R  c #E59999",
"E  c #EB9D9D",
"W  c #F19393",
"Q  c #F29C9C",
"!  c #EDA3A3",
"~  c #E6AAAA",
"^  c #ECABAB",
"/  c #F3A6A6",
"(  c #F2ACAC",
")  c #E7B0B0",
"_  c #EEB4B4",
"`  c #EFBDBD",
"'  c #F5B2B2",
"]  c #EDC6C6",
"[  c #EECECE",
"{  c #F7C5C5",
"}  c #F4CBCB",
"|  c #F8CDCD",
" . c #F6D3D3",
".. c #F9D4D4",
"X. c #F5DBDB",
"o. c #FADBDB",
"O. c #F7E2E2",
"+. c #FAE4E4",
"@. c #FBEBEB",
"#. c #FDF4F4",
"$. c #FFFEFE",
/* pixels */
"                                                                ",
"  > > : : : ; ; ; - - - - + + + O O O O o o o o X X X . . . .   ",
"  > > : : : : ; ; ; - - - - + + + O O o o o o o X X X X X . .   ",
"  > > : : : : : ; ; ; - - + + + + O O O o o o o o X X X . . .   ",
"  > > > : : : : ; ; ; - - - + + + O O O O o o o o X X X X . .   ",
"  > > > > : : : ; : ; ; - - - - + + + O O O o o o o X X X . .   ",
"  > > > : > : : ; ; ; ; - - - + + + O O O O o o o X X X X . X   ",
"  7 > > > : : : : ; ; ; ; - - + + + + O O o o o o o X X X X X   ",
"  > 7 > g B N N N N b b l , + - + + # h v c c c c c V = X X X   ",
"  7 > 0 ..$.$.$.$.$.$.$.#.b - - - + C $.$.$.$.$.$.$.$.[ $ . X   ",
"  > 7 > Q $.o.I I I I T #.| 3 - - w  .#.Y S J J J O.$.L o X X   ",
"  7 7 7 d +.@.p : : : ; ! $.P - - U $.R + O O O = @.X.* X X X   ",
"  7 7 > 7 H $./ < : : : p +.+.y i @.O.e + + O @ ) $.A o o o X   ",
"  7 7 7 7 0 | $.m : : : ; P $.! ^ $.S + + + O v $.] % o o X X   ",
"  7 7 7 > > B $.{ 4 : : : 5  .$.$.| 2 + + + & | $.x o o o X o   ",
"  7 7 7 7 7 8 ' $.F : : : ; D $.#.b - - + O S $.~ O O o o o o   ",
"  7 7 7 7 7 7 n #.o.t : : : D $.$.v - - + e +.@.u O o O o o o   ",
"  7 7 7 7 7 > > W $.T : : 6  .$.$.| 3 - + R $.K + O O O o o o   ",
"  7 7 7 7 7 > 7 s o.@.g : I $.E ! $.G - k #.X.w O O O O O o o   ",
"  7 7 7 7 7 7 7 7 F $.( g @.+.r y +.+.a _ $.Z + + + O O O o o   ",
"  7 7 7 7 7 7 7 > 9 { $.o.$.F : : P $.X.$.` 1 + + O + O O o o   ",
"  7 7 7 7 7 7 7 7 > M #.$.| 5 : ; 5  .$.#.k - + + + + O O o O   ",
"  7 7 7 7 7 7 7 7 > 8 / #.N > : : ; D #.R ; - + + + O O O O o   ",
"  7 7 7 7 7 7 7 7 7 > 0 n > : : : : , k 3 - - - - + + + O O O   ",
"  7 7 7 7 7 7 7 7 > 7 > > > : : : : : ; ; - - - - + + + O O O   ",
"  7 7 7 7 7 7 7 7 7 > 7 > > > > : : : ; ; ; ; - - - + + + O O   ",
"  7 7 7 7 7 7 7 7 7 > 7 > > > : : : : ; ; ; ; - - + + + + O O   ",
"  7 7 7 7 7 7 7 7 7 7 7 > > > > > : : : ; ; ; - - - - + + + O   ",
"  7 7 7 7 7 7 7 7 7 7 7 > 7 > > : : : : ; ; ; ; - - - + + + O   ",
"  7 7 7 7 7 7 7 7 7 7 7 7 > > > > : : : : ; ; ; - - - - + + +   ",
"  7 7 7 7 7 7 7 7 7 7 7 7 > > > > > > : : : ; ; ; - - - + + +   ",
"                                                                "
};
