/* XPM */
static char *wagerr64[] = {
/* columns rows colors chars-per-pixel */
"64 64 127 2 ",
"   c None",
".  c #9F0000",
"X  c #A40000",
"o  c #AC0000",
"O  c #AC0C0C",
"+  c #B40000",
"@  c #BB0000",
"#  c #B60A0A",
"$  c #BD0C0C",
"%  c #AD1414",
"&  c #B71414",
"*  c #BE1010",
"=  c #B01818",
"-  c #BE1D1D",
";  c #BC2222",
":  c #BC2828",
">  c #B83333",
",  c #C30000",
"<  c #CC0000",
"1  c #C40E0E",
"2  c #CC0909",
"3  c #D40000",
"4  c #DC0000",
"5  c #D30C0C",
"6  c #DB0A0A",
"7  c #CB1212",
"8  c #C41D1D",
"9  c #CC1C1C",
"0  c #D31717",
"q  c #DB1414",
"w  c #D61E1E",
"e  c #DC1C1C",
"r  c #E40000",
"t  c #E00E0E",
"y  c #E01313",
"u  c #E21C1C",
"i  c #C02121",
"p  c #CF2323",
"a  c #C52F2F",
"s  c #CB2E2E",
"d  c #D32525",
"f  c #DB2222",
"g  c #D62929",
"h  c #DD2B2B",
"j  c #CE3535",
"k  c #C33B3B",
"l  c #D23333",
"z  c #D63D3D",
"x  c #D93B3B",
"c  c #E22424",
"v  c #E32D2D",
"b  c #E33333",
"n  c #E33C3C",
"m  c #C64242",
"M  c #CD4747",
"N  c #CF4A4A",
"B  c #D24444",
"V  c #DE4444",
"C  c #D84D4D",
"Z  c #CB5353",
"A  c #C85A5A",
"S  c #D75050",
"D  c #DD5555",
"F  c #D05F5F",
"G  c #DC5B5B",
"H  c #E54444",
"J  c #E44E4E",
"K  c #E84D4D",
"L  c #E55555",
"P  c #E85050",
"I  c #E65D5D",
"U  c #E95C5C",
"Y  c #D76464",
"T  c #DB6363",
"R  c #D66A6A",
"E  c #DE6969",
"W  c #D37272",
"Q  c #D27B7B",
"!  c #DC7C7C",
"~  c #E26666",
"^  c #EB6464",
"/  c #E26E6E",
"(  c #EB6D6D",
")  c #E47575",
"_  c #EA7474",
"`  c #E47B7B",
"'  c #EB7C7C",
"]  c #DE8383",
"[  c #DD8989",
"{  c #DD9494",
"}  c #DC9B9B",
"|  c #E38484",
" . c #EE8484",
".. c #E68989",
"X. c #EA8D8D",
"o. c #F08D8D",
"O. c #E79292",
"+. c #EC9595",
"@. c #E69D9D",
"#. c #ED9B9B",
"$. c #F09191",
"%. c #F29D9D",
"&. c #E6A7A7",
"*. c #EBA4A4",
"=. c #E4AAAA",
"-. c #EEAAAA",
";. c #F2A4A4",
":. c #F2ABAB",
">. c #EBB3B3",
",. c #ECBBBB",
"<. c #F3B2B2",
"1. c #F4BCBC",
"2. c #EDC4C4",
"3. c #EDCACA",
"4. c #F5C3C3",
"5. c #F4CBCB",
"6. c #F8CBCB",
"7. c #EFD1D1",
"8. c #F5D4D4",
"9. c #F9D3D3",
"0. c #F6DBDB",
"q. c #F9DCDC",
"w. c #F6E2E2",
"e. c #FAE3E3",
"r. c #FBECEC",
"t. c #FDF4F4",
"y. c #FFFFFF",
/* pixels */
"                                                                                                                                ",
"                                                                                                                                ",
"    4 4 3 4 3 3 3 3 3 3 < < < < < , < , , , , , , @ @ @ @ + @ @ + + + + + + + o o o o o o X o X X X X X . X . . . . . . . .     ",
"    4 3 4 4 3 3 3 3 3 < 3 3 < < < < , < < , , , , , , @ @ @ @ + @ + + + o + o + o o o o o o X o X X X X X X X X X . . . . .     ",
"    4 4 3 4 3 4 3 3 3 3 < < < < < < , , < , , , , @ , @ @ @ @ @ @ + @ + + + o + + o o o o o o X o X X X X X . . X . . . . .     ",
"    4 4 3 4 4 3 3 3 3 < 3 3 3 < < < < < , , < , , , @ , @ @ @ @ + @ + + + + + o o o o o o o X o o X X X X X X X . . . . . .     ",
"    4 4 4 3 4 3 3 3 3 3 3 3 < < < < < < < , , , , , , @ , @ @ @ @ + + + + + + + o + o o o X o X X X o X X X X . X . . . . .     ",
"    4 4 4 4 3 4 4 3 3 3 3 < 3 3 < < < , < < , , , @ @ , @ @ @ @ @ @ @ + + + + o + o + o o o o X o X X X X X X X X . X . . .     ",
"    r 4 4 4 4 4 3 4 3 3 3 3 < 3 < < < < < < < , , , , @ , @ @ @ @ + @ + + + + + + + o o o o o o o X X X X X X X . X . X . .     ",
"    4 4 4 4 3 3 4 3 3 3 3 3 3 < < 3 < < < , , < , , , , , , @ @ @ @ @ + + + + + + o + o o o o o X o o X X X X X X . . X . .     ",
"    4 4 4 4 3 4 3 4 3 4 3 3 3 3 < < < < < , < , , , , , @ , @ @ @ @ @ + + @ + + + o + o + o o o o X X o X X X X X X . . X .     ",
"    4 4 4 4 4 4 4 3 3 3 3 3 3 < 3 < 3 < < < < , < , , , , @ , @ @ @ @ @ @ + + + + + + o o o o o o o o X o X X X X . X . . .     ",
"    4 r 4 4 4 4 4 3 3 3 3 3 3 3 < < 3 < < < , < , , , , , @ , @ @ @ @ @ @ + + + + + o + o o o o o X o X X o X X X . X . . .     ",
"    4 4 r 4 4 4 4 4 4 4 3 3 3 3 3 3 < < < < < , < , < , , , @ , @ @ @ @ @ + @ + + + + + o + o o o o X o o X X X X X X X X .     ",
"    r 4 4 4 4 4 4 3 3 3 4 3 3 3 3 < 3 < < < < < , , , , , , , , @ @ @ @ @ @ + + + + + o + o o o o X o o o X X X X X X . X .     ",
"    4 r 4 4 4 4 4 4 4 4 3 3 3 3 3 3 < 3 < < < < < < < , , , @ @ , @ @ @ @ + @ + + + + + o + o + o o o o X o X X X X X X . X     ",
"    r 4 r 4 4 4 4 4 4 4 3 3 3 3 3 3 3 < < < < 2 < , < , , , , , , @ @ @ @ + @ + @ + + + + + + o o o o o O X X X X X X X X X     ",
"    4 r 4 r 4 4 n ;.<.:.<.:.:.:.-.:.:.-.:.-.-.:.*.G 2 , , , , , @ , @ , @ $ R &.=.=.=.=.=.=.=.=.=.=.=.=.=.=.} > X X X X X .     ",
"    r 4 4 r 4 y 6.y.y.y.y.y.y.y.y.y.y.y.y.y.y.y.y.y.~ , < , , , , , @ @ @ ! y.y.y.y.y.y.y.y.y.y.y.y.y.y.y.y.y.,.O X X X X X     ",
"    r r r 4 r u q.y.y.y.y.y.y.y.y.y.y.y.y.y.y.y.y.y.0.p , , , , , @ @ @ s e.y.y.y.y.y.y.y.y.y.y.y.y.y.y.y.y.y.7.% X X X X X     ",
"    r 4 r 4 4 r o.y.y.y.y.r.e.e.e.e.e.e.e.e.q.t.y.y.y...< , , , , , @ , @.y.y.y.r.w.w.0.e.w.w.w.w.w.r.y.y.y.y.Q o X X X X X     ",
"    r r 4 r 4 4 c 9.y.y.y. .f f f f f f w w w D r.y.y.r.z < , , , , , M t.y.y.w.M - 8 ; ; ; ; ; ; ; { y.y.y.3.= X o X X X X     ",
"    4 r r r r 4 4 ( y.y.y.6.e 4 3 3 3 3 3 < < 3 +.y.y.y.-., < , , , 1 ,.y.y.y.] + @ + + + + + o o ; w.y.y.y.A o o X X X X X     ",
"    r r r 4 r r r y 1.y.y.y. .3 4 3 3 3 3 3 3 < g 0.y.y.y.D , , , , T y.y.y.8.8 @ @ + @ + + + + + } y.y.y.=.O X o X o X X X     ",
"    r r r 4 r r 4 4 K t.y.y.e.b 3 4 3 3 3 3 < < < ) y.y.y.4.7 , , 9 8.y.y.y.Y @ @ @ @ + + + + + m r.y.y.r.k o o o X X X o X     ",
"    r r r r r 4 4 r r ;.y.y.y.;.4 3 3 3 3 3 3 3 3 0 5.y.y.y.) , , ..y.y.y.,.1 @ @ @ + @ + @ + $ =.y.y.y.{ o o o o o o X X X     ",
"    r r r 4 r r 4 r 4 b e.y.y.t.P 3 4 3 3 3 3 < 3 < D t.y.y.0.p j e.y.y.t.N @ @ @ @ @ @ @ + + A y.y.y.0.; o o o X o X X o X     ",
"    r r r r r r r 4 r 4  .y.y.y.4.q 4 3 3 3 3 3 3 < 5 :.y.y.y.+.*.y.y.y.@., @ , @ @ + @ + @ - 5.y.y.y.W o o o o o o X o X X     ",
"    r r r r r r 4 r 4 4 c 9.y.y.y.( 4 3 3 3 3 3 < 3 < x r.y.y.y.y.y.y.w.s , , @ @ @ @ @ @ + ! y.y.y.2.& o + o o o o X o o X     ",
"    r r r r r r r 4 r 4 r ^ y.y.y.9.f 3 3 4 3 3 3 < < 3 X.y.y.y.y.y.y.` , , , , , @ @ @ + a w.y.y.t.Z o + o o o o o o X X o     ",
"    r r r r r r r r r 4 4 6 1.y.y.y.X.4 3 3 3 3 3 < 3 < d 9.y.y.y.y.5.7 , , @ , @ @ @ @ @ &.y.y.y.&.# + + o o o o o o o o X     ",
"    r r r r r r r 4 4 r 4 r H t.y.y.r.n 4 3 4 3 3 3 3 < < ) y.y.y.y.T , , , , , , @ @ @ M t.y.y.r.k + + + o + o o o o o X o     ",
"    r r r r r r r 4 r 4 4 4 4 %.y.y.y.:.6 3 3 3 3 3 < 3 3 ` y.y.y.y.E , , , , , @ , @ 1 ,.y.y.y.[ + + + + o o + o o o o X X     ",
"    r r r r r r r r r r r r 4 v e.y.y.t.P 4 3 3 3 3 3 < g 0.y.y.y.y.5.9 , , , , , @ @ T y.y.y.8.; + + + + + + o o o o o o o     ",
"    r r r r r r r r r 4 r 4 r 4 ' y.y.y.5.q 3 4 3 3 3 3 +.y.y.y.y.y.y..., < , , , , 8 8.y.y.y.R + + + + + o + o + o o o o o     ",
"    r r r r r r r r r r 4 r 4 r u 6.y.y.y._ 4 3 3 3 3 V r.y.y.t.t.y.y.e.l , , , , @ ..y.y.y.,.$ @ @ + @ + + + o o o + o o o     ",
"    r r r r r r r r 4 r 4 r 4 4 4 L y.y.y.q.h 3 3 3 5 <.y.y.y.X.@.y.y.y.*.< , , , j r.y.y.t.M @ @ + @ + + + + + + o + o o X     ",
"    r r r r r r r r r r r r r 4 4 t :.y.y.y.+.4 4 3 I y.y.y.8.w f 0.y.y.t.C , , , *.y.y.y.&.@ @ @ @ + + + + + + o + o o o o     ",
"    r r r r r r r r r r r 4 r r r 4 n r.y.y.r.H 3 e 5.y.y.y.~ 3 < ` y.y.y.1.7 , N y.y.y.e.s @ @ @ @ + @ + + + + + o o o o o     ",
"    r r r r r r r r r r r 4 r r 4 4 r $.y.y.y.<.6 ' y.y.y.1.5 < < 0 5.y.y.y.E 7 4.y.y.y.! @ , @ @ + @ + + + + + + + o + o o     ",
"    r r r r r r r r r r r r r r r 4 4 c q.y.y.t.X.q.y.y.t.V < 3 3 < D y.y.y.8.O.y.y.y.5.8 , @ @ @ @ @ + @ + + + + o o + o o     ",
"    r r r r r r r r r r r r r r 4 r 4 4 ( y.y.y.y.y.y.y.@.3 3 3 < 3 2 -.y.y.y.y.y.y.y.G , @ @ @ @ @ @ @ + + + + + + + o o o     ",
"    r r r r r r r r r r r r r r r 4 r r y 4.y.y.y.y.y.e.b 3 3 3 3 < < x r.y.y.y.y.y.-.1 , , , @ @ @ + @ @ + @ + + + o + o +     ",
"    r r r r r r r r r r r r r r r 4 4 4 r L t.y.y.y.y.' 3 3 3 3 3 3 < 3 X.y.y.y.y.r.B @ , @ , @ @ @ @ @ @ @ + + + + + o + o     ",
"    r r r r r r r r r r r r r r 4 r r 4 4 r :.y.y.y.5.e 4 3 3 3 3 < 3 < d q.y.y.y.O.< , , , @ , @ @ @ @ + @ + + + + + + o +     ",
"    r r r r r r r r r r r r r r r r 4 4 4 4 b e.y.y.I 4 3 3 3 3 3 3 < 3 < / y.y.0.g , , , , , @ , @ @ @ @ @ @ + + + + o + o     ",
"    r r r r r r r r r r r r r r r r 4 r r 4 4 H +.I 4 3 4 3 3 3 3 3 3 < < 2 / X.z < , , , , , , , @ @ @ @ + @ + + + + + + o     ",
"    r r r r r r r r r r r r r r 4 r r r 4 4 r 4 4 4 4 4 4 3 4 3 3 < < 3 3 < < < < , , < , , , , , @ , @ @ @ @ @ + + + + + +     ",
"    r r r r r r r r r r r r r r r r 4 4 r 4 4 4 4 4 4 4 3 3 4 3 3 3 3 3 3 < < < < , < , , , , , , @ , @ @ @ @ @ + + + + + +     ",
"    r r r r r r r r r r r r r r r 4 r r 4 r r 4 4 4 4 3 4 4 3 3 3 3 3 < 3 < 3 < < < < < < , , , , @ , @ , @ @ + @ + + + + +     ",
"    r r r r r r r r r r r r r r r r r r r r 4 4 4 4 4 4 4 3 3 3 3 3 3 3 < 3 < < < < < , , , , , , @ @ @ @ @ @ @ @ + @ + + +     ",
"    r r r r r r r r r r r r r r r r r 4 r 4 4 r 4 4 4 4 3 4 4 4 3 3 3 3 3 < 3 < < < < , < < < , , , , , @ @ @ @ @ + + + + +     ",
"    r r r r r r r r r r r r r r r r r r r r r 4 4 4 4 4 4 4 4 3 3 3 3 3 3 < 3 < < < < < , , < , , , , @ , @ @ @ @ + + + + +     ",
"    r r r r r r r r r r r r r r r r r r r 4 r 4 4 r 4 4 4 4 3 4 4 3 3 3 3 < < 3 < < < < < < , , , , , @ , @ @ @ @ @ @ @ + +     ",
"    r r r r r r r r r r r r r r r r r r 4 r r r 4 4 4 4 4 4 3 3 4 3 4 3 3 3 3 < 3 < < < < , < , , , , , @ , @ @ @ @ + + @ +     ",
"    r r r r r r r r r r r r r r r r r r r r r r r 4 r 4 4 4 4 4 3 4 3 3 3 3 3 3 < < < < < < , , , , , , , @ @ @ @ @ @ @ + +     ",
"    r r r r r r r r r r r r r r r r r r r r r r 4 4 4 4 4 4 4 4 4 3 3 3 3 3 3 3 3 < < < < < , < < , , , , , , @ @ @ @ + + @     ",
"    r r r r r r r r r r r r r r r r r r r r r r r r r 4 4 4 4 4 4 4 4 3 3 3 3 3 < 3 3 < < < < , , , , , @ , @ @ @ @ @ @ @ +     ",
"    r r r r r r r r r r r r r r r r r r r r r r r 4 r 4 4 4 4 4 3 3 4 3 3 3 3 3 < < < < < < , < < , , , , , , @ @ @ @ @ @ +     ",
"    r r r r r r r r r r r r r r r r r r r r r r 4 r 4 r 4 4 4 4 4 4 3 4 3 3 3 3 3 3 3 3 < < < < , < , , , , , @ @ @ @ @ @ @     ",
"    r r r r r r r r r r r r r r r r r r r r r r r 4 r 4 4 4 4 4 4 4 4 3 3 3 3 3 3 3 < < < < < < < < , , , , , , @ , @ @ + @     ",
"    r r r r r r r r r r r r r r r r r r r r r r r r 4 r r 4 4 4 4 3 4 4 4 3 4 3 3 3 3 < < < < < < , < , , , , @ , @ @ @ @       ",
"                                                                                                                                ",
"                                                                                                                                "
};
