/* XPM */
static char *wagerr16[] = {
/* columns rows colors chars-per-pixel */
"16 16 155 2 ",
"   c None",
".  c #9E0000",
"X  c #9F0000",
"o  c #A00000",
"O  c #A10000",
"+  c #A20000",
"@  c #A30000",
"#  c #A40000",
"$  c #A50000",
"%  c #A60000",
"&  c #A70000",
"*  c #A60101",
"=  c #A80000",
"-  c #A90000",
";  c #AA0000",
":  c #AA0202",
">  c #AC0000",
",  c #AE0000",
"<  c #AF0000",
"1  c #AF0202",
"2  c #A80505",
"3  c #A90D0D",
"4  c #B00000",
"5  c #B10000",
"6  c #B20000",
"7  c #B30000",
"8  c #B30202",
"9  c #B40000",
"0  c #B50000",
"q  c #B60000",
"w  c #B70000",
"e  c #B80000",
"r  c #B90000",
"t  c #BA0000",
"y  c #BB0000",
"u  c #BC0000",
"i  c #BD0000",
"p  c #BD0101",
"a  c #BE0000",
"s  c #BF0000",
"d  c #BF0202",
"f  c #BD1C1C",
"g  c #BC3232",
"h  c #C00000",
"j  c #C10000",
"k  c #C20000",
"l  c #C30000",
"z  c #C40000",
"x  c #C50000",
"c  c #C40101",
"v  c #C60000",
"b  c #C70000",
"n  c #C80000",
"m  c #C90000",
"M  c #CA0000",
"N  c #CB0000",
"B  c #CB0202",
"V  c #CC0000",
"C  c #CD0000",
"Z  c #CE0000",
"A  c #CF0000",
"S  c #C30C0C",
"D  c #C70C0C",
"F  c #C50E0E",
"G  c #D10000",
"H  c #D20000",
"J  c #D30000",
"K  c #D00202",
"L  c #D10202",
"P  c #D40000",
"I  c #D50000",
"U  c #D60000",
"Y  c #D70000",
"T  c #D60101",
"R  c #D50202",
"E  c #D80000",
"W  c #D90101",
"Q  c #DA0000",
"!  c #DB0000",
"~  c #DC0000",
"^  c #DD0000",
"/  c #DE0000",
"(  c #DF0000",
")  c #D50E0E",
"_  c #D41010",
"`  c #E00000",
"'  c #E10000",
"]  c #E20000",
"[  c #E30000",
"{  c #E40000",
"}  c #E50000",
"|  c #E10707",
" . c #E10E0E",
".. c #E00F0F",
"X. c #E31F1F",
"o. c #C02424",
"O. c #DC2121",
"+. c #DB2F2F",
"@. c #CF3737",
"#. c #D13333",
"$. c #D93333",
"%. c #D33939",
"&. c #E63535",
"*. c #E03C3C",
"=. c #E63C3C",
"-. c #CA4D4D",
";. c #D04040",
":. c #D15B5B",
">. c #E24C4C",
",. c #E25C5C",
"<. c #D66262",
"1. c #DE6666",
"2. c #D66969",
"3. c #D96969",
"4. c #E16363",
"5. c #E86161",
"6. c #EB6767",
"7. c #E46D6D",
"8. c #E07777",
"9. c #E97A7A",
"0. c #D98282",
"q. c #D68989",
"w. c #EF8686",
"e. c #EF8C8C",
"r. c #EE8F8F",
"t. c #E19393",
"y. c #E1A0A0",
"u. c #E1A3A3",
"i. c #E0A4A4",
"p. c #E4A4A4",
"a. c #EEA0A0",
"s. c #EDA4A4",
"d. c #EEA5A5",
"f. c #EEA7A7",
"g. c #EBA9A9",
"h. c #ECA9A9",
"j. c #ECABAB",
"k. c #F0A3A3",
"l. c #F1A6A6",
"z. c #F4A8A8",
"x. c #ECB0B0",
"c. c #E8B4B4",
"v. c #EBBDBD",
"b. c #EDBDBD",
"n. c #F3B0B0",
"m. c #F5B4B4",
"M. c #F0BFBF",
"N. c #F5BDBD",
"B. c #F6BEBE",
"V. c #EFC1C1",
"C. c #F1C0C0",
"Z. c #F3C2C2",
"A. c #F4C3C3",
"S. c #F9DCDC",
"D. c #F8DEDE",
/* pixels */
"  Y H Z m z s t 0 4 > = # O X   ",
"! E P A N v j u w 6 , - % + o . ",
"^ ! U H C n l a t 0 4 > = # O X ",
"( ^ W R K B v j u w 8 1 : * @ o ",
"' ..e.k.a.s.1.c d 2.p.y.u.q.3 O ",
"] | z.n.>.,.Z.#.@.V.:.-.c.i.2 @ ",
"{ ' &.N.O.G 7.h.j.3.e o.v.g & $ ",
"} [ ` w.r.I _ A.M.F p t.0., ; & ",
"} { ] X.B.*.) A.C.D ;.b.f 4 > - ",
"} } [ ` 6.l.9.d.f.8.g.<.w 7 < > ",
"} } { ]  .m.S.+.$.D.x.S t q 5 , ",
"} } } [ ` =.5.T L 4.%.k i e 9 4 ",
"} } } { ] ( ! E J Z M x h y q 7 ",
"} } } } { ' / Q U G V n l a r 0 ",
"} } } } } ] ( ~ E P A M x h y e ",
"  } } } } [ ' ^ Q I G V b k i   "
};
