<?xml version="1.0" encoding="UTF-8" standalone="no"?>
<!-- Generator: Adobe Illustrator 22.0.1, SVG Export Plug-In . SVG Version: 6.00 Build 0)  -->

<svg
   xmlns:dc="http://purl.org/dc/elements/1.1/"
   xmlns:cc="http://creativecommons.org/ns#"
   xmlns:rdf="http://www.w3.org/1999/02/22-rdf-syntax-ns#"
   xmlns:svg="http://www.w3.org/2000/svg"
   xmlns="http://www.w3.org/2000/svg"
   xmlns:sodipodi="http://sodipodi.sourceforge.net/DTD/sodipodi-0.dtd"
   xmlns:inkscape="http://www.inkscape.org/namespaces/inkscape"
   version="1.1"
   id="Layer_1"
   x="0px"
   y="0px"
   viewBox="0 0 64 380"
   style="enable-background:new 0 0 64 380;"
   xml:space="preserve"
   inkscape:version="0.91 r13725"
   sodipodi:docname="about-vegas.svg"
   inkscape:export-filename="/home/tor/go/src/github.com/wagerr/wagerr/src/qt/res/images/about.png"
   inkscape:export-xdpi="90"
   inkscape:export-ydpi="90"><metadata
     id="metadata63"><rdf:RDF><cc:Work
         rdf:about=""><dc:format>image/svg+xml</dc:format><dc:type
           rdf:resource="http://purl.org/dc/dcmitype/StillImage" /></cc:Work></rdf:RDF></metadata><defs
     id="defs61"><filter
       style="color-interpolation-filters:sRGB;"
       inkscape:label="Drop Shadow"
       id="filter3759"><feFlood
         flood-opacity="0.498039"
         flood-color="rgb(0,0,0)"
         result="flood"
         id="feFlood3761" /><feComposite
         in="flood"
         in2="SourceGraphic"
         operator="in"
         result="composite1"
         id="feComposite3763" /><feGaussianBlur
         in="composite1"
         stdDeviation="3"
         result="blur"
         id="feGaussianBlur3765" /><feOffset
         dx="6"
         dy="6"
         result="offset"
         id="feOffset3767" /><feComposite
         in="SourceGraphic"
         in2="offset"
         operator="over"
         result="fbSourceGraphic"
         id="feComposite3769" /><feColorMatrix
         result="fbSourceGraphicAlpha"
         in="fbSourceGraphic"
         values="0 0 0 -1 0 0 0 0 -1 0 0 0 0 -1 0 0 0 0 1 0"
         id="feColorMatrix3819" /><feFlood
         id="feFlood3821"
         flood-opacity="0.498039"
         flood-color="rgb(0,0,0)"
         result="flood"
         in="fbSourceGraphic" /><feComposite
         id="feComposite3823"
         in2="fbSourceGraphic"
         in="flood"
         operator="in"
         result="composite1" /><feGaussianBlur
         id="feGaussianBlur3825"
         in="composite1"
         stdDeviation="3"
         result="blur" /><feOffset
         id="feOffset3827"
         dx="6"
         dy="6"
         result="offset" /><feComposite
         id="feComposite3829"
         in2="offset"
         in="fbSourceGraphic"
         operator="over"
         result="composite2" /></filter><filter
       style="color-interpolation-filters:sRGB;"
       inkscape:label="Drop Shadow"
       id="filter3771"><feFlood
         flood-opacity="0.498039"
         flood-color="rgb(0,0,0)"
         result="flood"
         id="feFlood3773" /><feComposite
         in="flood"
         in2="SourceGraphic"
         operator="in"
         result="composite1"
         id="feComposite3775" /><feGaussianBlur
         in="composite1"
         stdDeviation="3"
         result="blur"
         id="feGaussianBlur3777" /><feOffset
         dx="6"
         dy="6"
         result="offset"
         id="feOffset3779" /><feComposite
         in="SourceGraphic"
         in2="offset"
         operator="over"
         result="fbSourceGraphic"
         id="feComposite3781" /><feColorMatrix
         result="fbSourceGraphicAlpha"
         in="fbSourceGraphic"
         values="0 0 0 -1 0 0 0 0 -1 0 0 0 0 -1 0 0 0 0 1 0"
         id="feColorMatrix3831" /><feFlood
         id="feFlood3833"
         flood-opacity="0.498039"
         flood-color="rgb(0,0,0)"
         result="flood"
         in="fbSourceGraphic" /><feComposite
         id="feComposite3835"
         in2="fbSourceGraphic"
         in="flood"
         operator="in"
         result="composite1" /><feGaussianBlur
         id="feGaussianBlur3837"
         in="composite1"
         stdDeviation="3"
         result="blur" /><feOffset
         id="feOffset3839"
         dx="6"
         dy="6"
         result="offset" /><feComposite
         id="feComposite3841"
         in2="offset"
         in="fbSourceGraphic"
         operator="over"
         result="composite2" /></filter><filter
       style="color-interpolation-filters:sRGB;"
       inkscape:label="Drop Shadow"
       id="filter3783"><feFlood
         flood-opacity="0.498039"
         flood-color="rgb(0,0,0)"
         result="flood"
         id="feFlood3785" /><feComposite
         in="flood"
         in2="SourceGraphic"
         operator="in"
         result="composite1"
         id="feComposite3787" /><feGaussianBlur
         in="composite1"
         stdDeviation="3"
         result="blur"
         id="feGaussianBlur3789" /><feOffset
         dx="6"
         dy="6"
         result="offset"
         id="feOffset3791" /><feComposite
         in="SourceGraphic"
         in2="offset"
         operator="over"
         result="fbSourceGraphic"
         id="feComposite3793" /><feColorMatrix
         result="fbSourceGraphicAlpha"
         in="fbSourceGraphic"
         values="0 0 0 -1 0 0 0 0 -1 0 0 0 0 -1 0 0 0 0 1 0"
         id="feColorMatrix3843" /><feFlood
         id="feFlood3845"
         flood-opacity="0.498039"
         flood-color="rgb(0,0,0)"
         result="flood"
         in="fbSourceGraphic" /><feComposite
         id="feComposite3847"
         in2="fbSourceGraphic"
         in="flood"
         operator="in"
         result="composite1" /><feGaussianBlur
         id="feGaussianBlur3849"
         in="composite1"
         stdDeviation="3"
         result="blur" /><feOffset
         id="feOffset3851"
         dx="6"
         dy="6"
         result="offset" /><feComposite
         id="feComposite3853"
         in2="offset"
         in="fbSourceGraphic"
         operator="over"
         result="composite2" /></filter><filter
       style="color-interpolation-filters:sRGB;"
       inkscape:label="Drop Shadow"
       id="filter3795"><feFlood
         flood-opacity="0.498039"
         flood-color="rgb(0,0,0)"
         result="flood"
         id="feFlood3797" /><feComposite
         in="flood"
         in2="SourceGraphic"
         operator="in"
         result="composite1"
         id="feComposite3799" /><feGaussianBlur
         in="composite1"
         stdDeviation="3"
         result="blur"
         id="feGaussianBlur3801" /><feOffset
         dx="6"
         dy="6"
         result="offset"
         id="feOffset3803" /><feComposite
         in="SourceGraphic"
         in2="offset"
         operator="over"
         result="fbSourceGraphic"
         id="feComposite3805" /><feColorMatrix
         result="fbSourceGraphicAlpha"
         in="fbSourceGraphic"
         values="0 0 0 -1 0 0 0 0 -1 0 0 0 0 -1 0 0 0 0 1 0"
         id="feColorMatrix3855" /><feFlood
         id="feFlood3857"
         flood-opacity="0.498039"
         flood-color="rgb(0,0,0)"
         result="flood"
         in="fbSourceGraphic" /><feComposite
         id="feComposite3859"
         in2="fbSourceGraphic"
         in="flood"
         operator="in"
         result="composite1" /><feGaussianBlur
         id="feGaussianBlur3861"
         in="composite1"
         stdDeviation="3"
         result="blur" /><feOffset
         id="feOffset3863"
         dx="6"
         dy="6"
         result="offset" /><feComposite
         id="feComposite3865"
         in2="offset"
         in="fbSourceGraphic"
         operator="over"
         result="composite2" /></filter><filter
       style="color-interpolation-filters:sRGB;"
       inkscape:label="Drop Shadow"
       id="filter3807"><feFlood
         flood-opacity="0.498039"
         flood-color="rgb(0,0,0)"
         result="flood"
         id="feFlood3809" /><feComposite
         in="flood"
         in2="SourceGraphic"
         operator="in"
         result="composite1"
         id="feComposite3811" /><feGaussianBlur
         in="composite1"
         stdDeviation="3"
         result="blur"
         id="feGaussianBlur3813" /><feOffset
         dx="6"
         dy="6"
         result="offset"
         id="feOffset3815" /><feComposite
         in="SourceGraphic"
         in2="offset"
         operator="over"
         result="fbSourceGraphic"
         id="feComposite3817" /><feColorMatrix
         result="fbSourceGraphicAlpha"
         in="fbSourceGraphic"
         values="0 0 0 -1 0 0 0 0 -1 0 0 0 0 -1 0 0 0 0 1 0"
         id="feColorMatrix3867" /><feFlood
         id="feFlood3869"
         flood-opacity="0.498039"
         flood-color="rgb(0,0,0)"
         result="flood"
         in="fbSourceGraphic" /><feComposite
         id="feComposite3871"
         in2="fbSourceGraphic"
         in="flood"
         operator="in"
         result="composite1" /><feGaussianBlur
         id="feGaussianBlur3873"
         in="composite1"
         stdDeviation="3"
         result="blur" /><feOffset
         id="feOffset3875"
         dx="6"
         dy="6"
         result="offset" /><feComposite
         id="feComposite3877"
         in2="offset"
         in="fbSourceGraphic"
         operator="over"
         result="composite2" /></filter></defs><sodipodi:namedview
     pagecolor="#ffffff"
     bordercolor="#666666"
     borderopacity="1"
     objecttolerance="10"
     gridtolerance="10"
     guidetolerance="10"
     inkscape:pageopacity="0"
     inkscape:pageshadow="2"
     inkscape:window-width="1232"
     inkscape:window-height="876"
     id="namedview59"
     showgrid="false"
     inkscape:zoom="0.62105263"
     inkscape:cx="-207.11017"
     inkscape:cy="190"
     inkscape:window-x="0"
     inkscape:window-y="0"
     inkscape:window-maximized="0"
     inkscape:current-layer="Layer_1" /><style
     type="text/css"
     id="style3">
	.st0{fill:#DD0000;}
</style><g
     id="g5"
     style="filter:url(#filter3807)"><path
       class="st0"
       d="M55,11.9c-0.3-0.6-0.9-0.9-1.6-0.9c-4.5,0-9,0-13.6,0c-1.1,0-1.8,0.4-2.4,1.4c-1.1,2.1-2.3,4.1-3.5,6.1   c-0.5,0.9-1,1.7-1.5,2.6c0,0.1-0.1,0.1-0.2,0.2c-0.1-0.1-0.1-0.1-0.2-0.2c-0.5-0.9-1-1.7-1.5-2.6c-1.2-2-2.4-4.1-3.5-6.1   c-0.5-1-1.2-1.5-2.4-1.5c-4.5,0-9,0-13.6,0c-0.7,0-1.3,0.3-1.6,0.9c-0.4,0.6-0.3,1.3,0.1,1.9c0.5,0.9,1,1.7,1.5,2.6   c1.4,2.4,2.8,4.8,4.2,7.3c1.5,2.5,2.9,5.1,4.4,7.6c1.3,2.3,2.6,4.5,3.9,6.8c0.4,0.6,0.9,0.9,1.6,0.9c0.7,0,1.2-0.4,1.5-1   c0.3-0.6,0.7-1.2,1.1-1.8c1.2-2,2.3-4.1,3.5-6.1c0.3-0.5,0.5-0.9,0.8-1.5c0.3,0.5,0.6,1,0.8,1.4c1.2,2,2.3,4.1,3.5,6.1   c0.4,0.6,0.7,1.2,1.1,1.8c0.3,0.6,0.8,1,1.5,1c0.7,0,1.3-0.3,1.6-0.9c1.3-2.3,2.6-4.5,3.9-6.8c1.5-2.5,2.9-5.1,4.4-7.6   c1.4-2.4,2.8-4.8,4.2-7.3c0.5-0.9,1-1.8,1.5-2.6C55.3,13.2,55.3,12.5,55,11.9z M30.1,25.3c-1.3,2.3-2.7,4.6-4,7   c-0.3,0.4-0.5,0.9-0.8,1.4c-3.7-6.4-7.3-12.7-11-19.1c0.2,0,0.3,0,0.5,0c3,0,6,0,9,0c0.3,0,0.5,0.1,0.7,0.4   c1.6,2.8,3.2,5.6,4.8,8.4c0.3,0.5,0.6,0.9,0.8,1.4C30.2,24.9,30.2,25.2,30.1,25.3z M39.3,33.7c-0.3-0.5-0.6-1-0.8-1.5   c-1.3-2.3-2.7-4.6-4-7c-0.1-0.2-0.1-0.4,0-0.6c0.2-0.5,0.5-0.9,0.8-1.5c1.6-2.8,3.2-5.6,4.8-8.4c0.2-0.3,0.4-0.4,0.7-0.4   c3,0,6,0,9,0c0.1,0,0.3,0,0.5,0C46.6,21,43,27.3,39.3,33.7z"
       id="path7" /></g><g
     id="g9"
     style="filter:url(#filter3795)"><path
       d="M17.1,297.4v-5.2l19.9-3l-19.9-7.2v-4.9l19.1-6.7l-19.1-3.1v-5.1l27.7,5.2v4.9l-21.7,7.6l21.7,8.2v4.8L17.1,297.4z"
       id="path11" /><path
       d="M38.5,260.1c-4,0-6.1-2.9-6.1-8.8c0-1.5,0.1-2.8,0.4-4.1h-1.5c-1.8,0-2.7,1.3-2.7,3.9c0,2.2,0.3,4.7,1,7.4h-4.1   c-0.6-2.7-1-5.2-1-7.4c0-6,2.2-9.1,6.7-9.1h13.6v3l-1.8,1.8c1.2,1.8,1.8,3.7,1.8,5.8C44.8,257.6,42.7,260.1,38.5,260.1z    M35.9,251.3c0,2.5,0.8,3.7,2.5,3.7c1.8,0,2.7-1,2.7-3.1c0-1.7-0.5-3.3-1.6-4.7h-3.3C36,248.4,35.9,249.8,35.9,251.3z"
       id="path13" /><path
       d="M43.2,219c5.9,0,8.9,3.6,8.9,10.7c0,2.5-0.3,4.7-1,6.7h-4.1c0.6-2,1-4.2,1-6.7c0-3.7-1.5-5.5-4.6-5.5c0.6,1.5,1,3.2,1,4.9   c0,6-3.3,9.1-9.9,9.1c-6.7,0-10-3.5-10-10.5c0-2.4,0.3-5.2,0.8-8.6H43.2z M29.1,224.1c-0.3,0.8-0.5,2-0.5,3.6c0,3.5,2,5.3,5.9,5.3   c3.8,0,5.7-1.5,5.7-4.6c0-1.5-0.3-2.9-1-4.3H29.1z"
       id="path15" /><path
       d="M24.5,205.6c0-6.2,3.1-9.3,9.4-9.3c0.8,0,1.7,0.1,2.5,0.2V210c2.9,0,4.3-2.1,4.3-6.3c0-2.1-0.2-4.1-0.6-6.2h4.1   c0.4,1.8,0.6,4,0.6,6.5c0,7.4-3.5,11-10.4,11C27.8,215.1,24.5,212,24.5,205.6z M32.9,210v-8.7h-0.2c-2.8,0-4.2,1.4-4.2,4.3   C28.5,208.3,29.9,209.8,32.9,210z"
       id="path17" /><path
       d="M44.8,192.5H24.5v-4l2.6-0.6c-1.7-1.8-2.6-3.7-2.6-5.7h4.1c0,1.9,0.8,3.6,2.4,5.1h13.8V192.5z"
       id="path19" /><path
       d="M44.8,179.3H24.5v-4l2.6-0.6c-1.7-1.8-2.6-3.7-2.6-5.7h4.1c0,1.9,0.8,3.6,2.4,5.1h13.8V179.3z"
       id="path21" /><path
       d="M43.6,134.9c0.9,2.4,1.4,5.1,1.4,8.1c0,9.9-4.8,14.9-14.4,14.9c-9.1,0-13.6-5-13.6-14.9c0-3,0.5-5.7,1.4-8.1h4.6   c-1,2.4-1.5,5-1.5,7.7c0,6.6,3.1,10,9.2,10c6.6,0,10-3.3,10-10c0-2.8-0.5-5.4-1.5-7.7H43.6z"
       id="path23" /><path
       d="M34.6,131.5c-6.8,0-10.2-3.4-10.2-10.1s3.4-10.1,10.2-10.1c6.8,0,10.2,3.4,10.2,10.1C44.8,128.2,41.4,131.5,34.6,131.5z    M40.9,121.5c0-3.3-2.1-4.9-6.4-4.9c-4.1,0-6.2,1.6-6.2,4.9c0,3.3,2.1,4.9,6.2,4.9C38.8,126.4,40.9,124.8,40.9,121.5z"
       id="path25" /><path
       d="M44.8,107.6H24.5v-4l2.6-0.6c-1.7-1.8-2.6-3.7-2.6-5.7h4.1c0,1.9,0.8,3.6,2.4,5.1h13.8V107.6z"
       id="path27" /><path
       d="M24.5,85.8c0-6.2,3.1-9.3,9.4-9.3c0.8,0,1.7,0.1,2.5,0.2v13.5c2.9,0,4.3-2.1,4.3-6.3c0-2.1-0.2-4.1-0.6-6.2h4.1   c0.4,1.8,0.6,4,0.6,6.5c0,7.4-3.5,11-10.4,11C27.8,95.4,24.5,92.2,24.5,85.8z M32.9,90.2v-8.7h-0.2c-2.8,0-4.2,1.4-4.2,4.3   C28.5,88.5,29.9,90,32.9,90.2z"
       id="path29" /></g><g
     id="g31"
     style="filter:url(#filter3783)"><path
       d="M14,45.8H16l0.7,5.1l2.9-5.1h1.9L17.1,53h-1.7L14,45.8z"
       id="path33" /><path
       d="M28.1,47.9c-0.3,1.4-1.5,2.2-3.4,2.2h-1.8c-0.2,1,0.3,1.5,1.6,1.5c1,0,1.9-0.3,2.7-0.9L27,52.1c-0.8,0.6-1.7,0.9-2.9,0.9   c-2.4,0-3.4-1.2-2.9-3.7c0.5-2.4,1.9-3.6,4.2-3.6C27.5,45.8,28.4,46.5,28.1,47.9z M23.2,48.8H25c0.8,0,1.2-0.3,1.3-0.8   c0.1-0.5-0.3-0.8-1.2-0.8C24.1,47.2,23.5,47.7,23.2,48.8z"
       id="path35" /><path
       d="M35,53c-0.4,1.8-1.8,2.6-4.4,2.6c-0.9,0-1.7-0.1-2.3-0.3l0.3-1.5c0.7,0.2,1.4,0.3,2.3,0.3c1.4,0,2.1-0.4,2.3-1.2l0.4-1.9   c-0.8,1.2-1.7,1.9-2.8,1.9c-1.7,0-2.3-1.2-1.8-3.5c0.5-2.5,2-3.7,4.5-3.7c0.8,0,1.8,0.1,3,0.3L35,53z M34.2,47.4   c-0.3-0.1-0.7-0.2-1.5-0.2c-1.2,0-1.9,0.7-2.2,2.2c-0.3,1.4,0,2,0.7,2c0.9,0,1.7-0.6,2.5-1.9L34.2,47.4z"
       id="path37" /><path
       d="M43.2,53h-1.6l0.2-1.9C41,52.4,40,53,38.9,53c-1.7,0-2.3-1.2-1.8-3.5c0.5-2.5,2-3.7,4.5-3.7c0.8,0,1.8,0.1,3,0.3L43.2,53z    M42.5,47.4c-0.3-0.1-0.7-0.2-1.5-0.2c-1.2,0-1.9,0.7-2.2,2.2c-0.3,1.4,0,2,0.7,2c0.9,0,1.7-0.6,2.5-1.9L42.5,47.4z"
       id="path39" /><path
       d="M45.1,52.7l0.3-1.5c0.7,0.3,1.6,0.5,2.7,0.5c0.8,0,1.2-0.3,1.3-0.8c0.1-0.5-0.1-0.7-0.7-0.7h-1.3c-1.5,0-2.1-0.7-1.8-2.2   c0.3-1.5,1.5-2.3,3.7-2.3c0.9,0,1.7,0.1,2.5,0.4l-0.3,1.5c-0.7-0.3-1.6-0.5-2.5-0.5c-1,0-1.5,0.3-1.6,0.8c-0.1,0.5,0.1,0.7,0.7,0.7   h1.2c1.6,0,2.3,0.7,2,2.2c-0.3,1.5-1.5,2.3-3.5,2.3C46.7,53.1,45.8,53,45.1,52.7z"
       id="path41" /></g><g
     id="g43"
     style="filter:url(#filter3771)"><path
       class="st0"
       d="M54,322.9c-0.3-0.6-0.9-0.9-1.6-0.9c-4.5,0-9,0-13.6,0c-1.1,0-1.8,0.4-2.4,1.4c-1.1,2.1-2.3,4.1-3.5,6.1   c-0.5,0.9-1,1.7-1.5,2.6c0,0.1-0.1,0.1-0.2,0.2c-0.1-0.1-0.1-0.1-0.2-0.2c-0.5-0.9-1-1.7-1.5-2.6c-1.2-2-2.4-4.1-3.5-6.1   c-0.5-1-1.2-1.5-2.4-1.5c-4.5,0-9,0-13.6,0c-0.7,0-1.3,0.3-1.6,0.9c-0.4,0.6-0.3,1.3,0.1,1.9c0.5,0.9,1,1.7,1.5,2.6   c1.4,2.4,2.8,4.8,4.2,7.3c1.5,2.5,2.9,5.1,4.4,7.6c1.3,2.3,2.6,4.5,3.9,6.8c0.4,0.6,0.9,0.9,1.6,0.9c0.7,0,1.2-0.4,1.5-1   c0.3-0.6,0.7-1.2,1.1-1.8c1.2-2,2.3-4.1,3.5-6.1c0.3-0.5,0.5-0.9,0.8-1.5c0.3,0.5,0.6,1,0.8,1.4c1.2,2,2.3,4.1,3.5,6.1   c0.4,0.6,0.7,1.2,1.1,1.8c0.3,0.6,0.8,1,1.5,1c0.7,0,1.3-0.3,1.6-0.9c1.3-2.3,2.6-4.5,3.9-6.8c1.5-2.5,2.9-5.1,4.4-7.6   c1.4-2.4,2.8-4.8,4.2-7.3c0.5-0.9,1-1.8,1.5-2.6C54.3,324.2,54.3,323.5,54,322.9z M29.1,336.3c-1.3,2.3-2.7,4.6-4,7   c-0.3,0.4-0.5,0.9-0.8,1.4c-3.7-6.4-7.3-12.7-11-19.1c0.2,0,0.3,0,0.5,0c3,0,6,0,9,0c0.3,0,0.5,0.1,0.7,0.4   c1.6,2.8,3.2,5.6,4.8,8.4c0.3,0.5,0.6,0.9,0.8,1.4C29.2,335.9,29.2,336.2,29.1,336.3z M38.3,344.7c-0.3-0.5-0.6-1-0.8-1.5   c-1.3-2.3-2.7-4.6-4-7c-0.1-0.2-0.1-0.4,0-0.6c0.2-0.5,0.5-0.9,0.8-1.5c1.6-2.8,3.2-5.6,4.8-8.4c0.2-0.3,0.4-0.4,0.7-0.4   c3,0,6,0,9,0c0.1,0,0.3,0,0.5,0C45.6,332,42,338.3,38.3,344.7z"
       id="path45" /></g><g
     id="g47"
     style="filter:url(#filter3759)"><path
       d="M13,356.8H15l0.7,5.1l2.9-5.1h1.9l-4.4,7.3h-1.7L13,356.8z"
       id="path49" /><path
       d="M27.1,358.9c-0.3,1.4-1.5,2.2-3.4,2.2h-1.8c-0.2,1,0.3,1.5,1.6,1.5c1,0,1.9-0.3,2.7-0.9l-0.3,1.5c-0.8,0.6-1.7,0.9-2.9,0.9   c-2.4,0-3.4-1.2-2.9-3.7c0.5-2.4,1.9-3.6,4.2-3.6C26.5,356.8,27.4,357.5,27.1,358.9z M22.2,359.8H24c0.8,0,1.2-0.3,1.3-0.8   c0.1-0.5-0.3-0.8-1.2-0.8C23.1,358.2,22.5,358.7,22.2,359.8z"
       id="path51" /><path
       d="M34,364c-0.4,1.8-1.8,2.6-4.4,2.6c-0.9,0-1.7-0.1-2.3-0.3l0.3-1.5c0.7,0.2,1.4,0.3,2.3,0.3c1.4,0,2.1-0.4,2.3-1.2l0.4-1.9   c-0.8,1.2-1.7,1.9-2.8,1.9c-1.7,0-2.3-1.2-1.8-3.5c0.5-2.5,2-3.7,4.5-3.7c0.8,0,1.8,0.1,3,0.3L34,364z M33.2,358.4   c-0.3-0.1-0.7-0.2-1.5-0.2c-1.2,0-1.9,0.7-2.2,2.2c-0.3,1.4,0,2,0.7,2c0.9,0,1.7-0.6,2.5-1.9L33.2,358.4z"
       id="path53" /><path
       d="M42.2,364h-1.6l0.2-1.9c-0.8,1.2-1.7,1.9-2.8,1.9c-1.7,0-2.3-1.2-1.8-3.5c0.5-2.5,2-3.7,4.5-3.7c0.8,0,1.8,0.1,3,0.3   L42.2,364z M41.5,358.4c-0.3-0.1-0.7-0.2-1.5-0.2c-1.2,0-1.9,0.7-2.2,2.2c-0.3,1.4,0,2,0.7,2c0.9,0,1.7-0.6,2.5-1.9L41.5,358.4z"
       id="path55" /><path
       d="M44.1,363.7l0.3-1.5c0.7,0.3,1.6,0.5,2.7,0.5c0.8,0,1.2-0.3,1.3-0.8c0.1-0.5-0.1-0.7-0.7-0.7h-1.3c-1.5,0-2.1-0.7-1.8-2.2   c0.3-1.5,1.5-2.3,3.7-2.3c0.9,0,1.7,0.1,2.5,0.4l-0.3,1.5c-0.7-0.3-1.6-0.5-2.5-0.5c-1,0-1.5,0.3-1.6,0.8c-0.1,0.5,0.1,0.7,0.7,0.7   h1.2c1.6,0,2.3,0.7,2,2.2c-0.3,1.5-1.5,2.3-3.5,2.3C45.7,364.1,44.8,364,44.1,363.7z"
       id="path57" /></g></svg>