<?xml version="1.0" encoding="UTF-8" standalone="no"?>
<!-- Generator: Adobe Illustrator 22.0.1, SVG Export Plug-In . SVG Version: 6.00 Build 0)  -->

<svg
   xmlns:svg="http://www.w3.org/2000/svg"
   xmlns="http://www.w3.org/2000/svg"
   xmlns:sodipodi="http://sodipodi.sourceforge.net/DTD/sodipodi-0.dtd"
   xmlns:inkscape="http://www.inkscape.org/namespaces/inkscape"
   version="1.1"
   id="Layer_1"
   x="0px"
   y="0px"
   viewBox="0 0 64 380"
   xml:space="preserve"
   inkscape:export-xdpi="90"
   inkscape:export-ydpi="90"
   sodipodi:docname="about-slainte.svg"
   inkscape:version="0.92.2 5c3e80d, 2017-08-06"
   style="enable-background:new 0 0 64 380;"><defs
     id="defs61"><filter
       id="filter3759"
       style="color-interpolation-filters:sRGB;"><feFlood
         id="feFlood3761"
         result="flood"
         flood-color="rgb(0,0,0)"
         flood-opacity="0.498039" /><feComposite
         id="feComposite3763"
         result="composite1"
         operator="in"
         in2="SourceGraphic"
         in="flood" /><feGaussianBlur
         id="feGaussianBlur3765"
         result="blur"
         stdDeviation="3"
         in="composite1" /><feOffset
         id="feOffset3767"
         result="offset"
         dy="6"
         dx="6" /><feComposite
         id="feComposite3769"
         result="fbSourceGraphic"
         operator="over"
         in2="offset"
         in="SourceGraphic" /><feColorMatrix
         id="feColorMatrix3819"
         values="0 0 0 -1 0 0 0 0 -1 0 0 0 0 -1 0 0 0 0 1 0"
         in="fbSourceGraphic"
         result="fbSourceGraphicAlpha" /><feFlood
         in="fbSourceGraphic"
         result="flood"
         flood-color="rgb(0,0,0)"
         flood-opacity="0.498039"
         id="feFlood3821" /><feComposite
         result="composite1"
         operator="in"
         in="flood"
         in2="fbSourceGraphic"
         id="feComposite3823" /><feGaussianBlur
         result="blur"
         stdDeviation="3"
         in="composite1"
         id="feGaussianBlur3825" /><feOffset
         result="offset"
         dy="6"
         dx="6"
         id="feOffset3827" /><feComposite
         result="composite2"
         operator="over"
         in="fbSourceGraphic"
         in2="offset"
         id="feComposite3829" /></filter><filter
       id="filter3771"
       style="color-interpolation-filters:sRGB;"><feFlood
         id="feFlood3773"
         result="flood"
         flood-color="rgb(0,0,0)"
         flood-opacity="0.498039" /><feComposite
         id="feComposite3775"
         result="composite1"
         operator="in"
         in2="SourceGraphic"
         in="flood" /><feGaussianBlur
         id="feGaussianBlur3777"
         result="blur"
         stdDeviation="3"
         in="composite1" /><feOffset
         id="feOffset3779"
         result="offset"
         dy="6"
         dx="6" /><feComposite
         id="feComposite3781"
         result="fbSourceGraphic"
         operator="over"
         in2="offset"
         in="SourceGraphic" /><feColorMatrix
         id="feColorMatrix3831"
         values="0 0 0 -1 0 0 0 0 -1 0 0 0 0 -1 0 0 0 0 1 0"
         in="fbSourceGraphic"
         result="fbSourceGraphicAlpha" /><feFlood
         in="fbSourceGraphic"
         result="flood"
         flood-color="rgb(0,0,0)"
         flood-opacity="0.498039"
         id="feFlood3833" /><feComposite
         result="composite1"
         operator="in"
         in="flood"
         in2="fbSourceGraphic"
         id="feComposite3835" /><feGaussianBlur
         result="blur"
         stdDeviation="3"
         in="composite1"
         id="feGaussianBlur3837" /><feOffset
         result="offset"
         dy="6"
         dx="6"
         id="feOffset3839" /><feComposite
         result="composite2"
         operator="over"
         in="fbSourceGraphic"
         in2="offset"
         id="feComposite3841" /></filter><filter
       id="filter3783"
       style="color-interpolation-filters:sRGB;"><feFlood
         id="feFlood3785"
         result="flood"
         flood-color="rgb(0,0,0)"
         flood-opacity="0.498039" /><feComposite
         id="feComposite3787"
         result="composite1"
         operator="in"
         in2="SourceGraphic"
         in="flood" /><feGaussianBlur
         id="feGaussianBlur3789"
         result="blur"
         stdDeviation="3"
         in="composite1" /><feOffset
         id="feOffset3791"
         result="offset"
         dy="6"
         dx="6" /><feComposite
         id="feComposite3793"
         result="fbSourceGraphic"
         operator="over"
         in2="offset"
         in="SourceGraphic" /><feColorMatrix
         id="feColorMatrix3843"
         values="0 0 0 -1 0 0 0 0 -1 0 0 0 0 -1 0 0 0 0 1 0"
         in="fbSourceGraphic"
         result="fbSourceGraphicAlpha" /><feFlood
         in="fbSourceGraphic"
         result="flood"
         flood-color="rgb(0,0,0)"
         flood-opacity="0.498039"
         id="feFlood3845" /><feComposite
         result="composite1"
         operator="in"
         in="flood"
         in2="fbSourceGraphic"
         id="feComposite3847" /><feGaussianBlur
         result="blur"
         stdDeviation="3"
         in="composite1"
         id="feGaussianBlur3849" /><feOffset
         result="offset"
         dy="6"
         dx="6"
         id="feOffset3851" /><feComposite
         result="composite2"
         operator="over"
         in="fbSourceGraphic"
         in2="offset"
         id="feComposite3853" /></filter><filter
       id="filter3795"
       style="color-interpolation-filters:sRGB;"><feFlood
         id="feFlood3797"
         result="flood"
         flood-color="rgb(0,0,0)"
         flood-opacity="0.498039" /><feComposite
         id="feComposite3799"
         result="composite1"
         operator="in"
         in2="SourceGraphic"
         in="flood" /><feGaussianBlur
         id="feGaussianBlur3801"
         result="blur"
         stdDeviation="3"
         in="composite1" /><feOffset
         id="feOffset3803"
         result="offset"
         dy="6"
         dx="6" /><feComposite
         id="feComposite3805"
         result="fbSourceGraphic"
         operator="over"
         in2="offset"
         in="SourceGraphic" /><feColorMatrix
         id="feColorMatrix3855"
         values="0 0 0 -1 0 0 0 0 -1 0 0 0 0 -1 0 0 0 0 1 0"
         in="fbSourceGraphic"
         result="fbSourceGraphicAlpha" /><feFlood
         in="fbSourceGraphic"
         result="flood"
         flood-color="rgb(0,0,0)"
         flood-opacity="0.498039"
         id="feFlood3857" /><feComposite
         result="composite1"
         operator="in"
         in="flood"
         in2="fbSourceGraphic"
         id="feComposite3859" /><feGaussianBlur
         result="blur"
         stdDeviation="3"
         in="composite1"
         id="feGaussianBlur3861" /><feOffset
         result="offset"
         dy="6"
         dx="6"
         id="feOffset3863" /><feComposite
         result="composite2"
         operator="over"
         in="fbSourceGraphic"
         in2="offset"
         id="feComposite3865" /></filter><filter
       id="filter3807"
       style="color-interpolation-filters:sRGB;"><feFlood
         id="feFlood3809"
         result="flood"
         flood-color="rgb(0,0,0)"
         flood-opacity="0.498039" /><feComposite
         id="feComposite3811"
         result="composite1"
         operator="in"
         in2="SourceGraphic"
         in="flood" /><feGaussianBlur
         id="feGaussianBlur3813"
         result="blur"
         stdDeviation="3"
         in="composite1" /><feOffset
         id="feOffset3815"
         result="offset"
         dy="6"
         dx="6" /><feComposite
         id="feComposite3817"
         result="fbSourceGraphic"
         operator="over"
         in2="offset"
         in="SourceGraphic" /><feColorMatrix
         id="feColorMatrix3867"
         values="0 0 0 -1 0 0 0 0 -1 0 0 0 0 -1 0 0 0 0 1 0"
         in="fbSourceGraphic"
         result="fbSourceGraphicAlpha" /><feFlood
         in="fbSourceGraphic"
         result="flood"
         flood-color="rgb(0,0,0)"
         flood-opacity="0.498039"
         id="feFlood3869" /><feComposite
         result="composite1"
         operator="in"
         in="flood"
         in2="fbSourceGraphic"
         id="feComposite3871" /><feGaussianBlur
         result="blur"
         stdDeviation="3"
         in="composite1"
         id="feGaussianBlur3873" /><feOffset
         result="offset"
         dy="6"
         dx="6"
         id="feOffset3875" /><feComposite
         result="composite2"
         operator="over"
         in="fbSourceGraphic"
         in2="offset"
         id="feComposite3877" /></filter></defs><g
     transform="translate(-0.16498617,1.5321289)"
     id="g5"><path
       style="fill:#dd0000"
       id="path7"
       d="M 55,11.9 C 54.7,11.3 54.1,11 53.4,11 c -4.5,0 -9,0 -13.6,0 -1.1,0 -1.8,0.4 -2.4,1.4 -1.1,2.1 -2.3,4.1 -3.5,6.1 -0.5,0.9 -1,1.7 -1.5,2.6 0,0.1 -0.1,0.1 -0.2,0.2 -0.1,-0.1 -0.1,-0.1 -0.2,-0.2 -0.5,-0.9 -1,-1.7 -1.5,-2.6 -1.2,-2 -2.4,-4.1 -3.5,-6.1 -0.5,-1 -1.2,-1.5 -2.4,-1.5 -4.5,0 -9,0 -13.6,0 -0.7,0 -1.3,0.3 -1.6,0.9 -0.4,0.6 -0.3,1.3 0.1,1.9 0.5,0.9 1,1.7 1.5,2.6 1.4,2.4 2.8,4.8 4.2,7.3 1.5,2.5 2.9,5.1 4.4,7.6 1.3,2.3 2.6,4.5 3.9,6.8 0.4,0.6 0.9,0.9 1.6,0.9 0.7,0 1.2,-0.4 1.5,-1 0.3,-0.6 0.7,-1.2 1.1,-1.8 1.2,-2 2.3,-4.1 3.5,-6.1 0.3,-0.5 0.5,-0.9 0.8,-1.5 0.3,0.5 0.6,1 0.8,1.4 1.2,2 2.3,4.1 3.5,6.1 0.4,0.6 0.7,1.2 1.1,1.8 0.3,0.6 0.8,1 1.5,1 0.7,0 1.3,-0.3 1.6,-0.9 1.3,-2.3 2.6,-4.5 3.9,-6.8 1.5,-2.5 2.9,-5.1 4.4,-7.6 1.4,-2.4 2.8,-4.8 4.2,-7.3 0.5,-0.9 1,-1.8 1.5,-2.6 0.8,-0.4 0.8,-1.1 0.5,-1.7 z M 30.1,25.3 c -1.3,2.3 -2.7,4.6 -4,7 -0.3,0.4 -0.5,0.9 -0.8,1.4 C 21.6,27.3 18,21 14.3,14.6 c 0.2,0 0.3,0 0.5,0 3,0 6,0 9,0 0.3,0 0.5,0.1 0.7,0.4 1.6,2.8 3.2,5.6 4.8,8.4 0.3,0.5 0.6,0.9 0.8,1.4 0.1,0.1 0.1,0.4 0,0.5 z m 9.2,8.4 c -0.3,-0.5 -0.6,-1 -0.8,-1.5 -1.3,-2.3 -2.7,-4.6 -4,-7 -0.1,-0.2 -0.1,-0.4 0,-0.6 0.2,-0.5 0.5,-0.9 0.8,-1.5 1.6,-2.8 3.2,-5.6 4.8,-8.4 0.2,-0.3 0.4,-0.4 0.7,-0.4 3,0 6,0 9,0 0.1,0 0.3,0 0.5,0 -3.7,6.7 -7.3,13 -11,19.4 z"
       class="st0" /></g><g
     transform="translate(-2.550004,3.0500198)"
     id="g9"><path
       id="path11"
       d="m 17.1,297.4 v -5.2 L 37,289.2 17.1,282 v -4.9 l 19.1,-6.7 -19.1,-3.1 v -5.1 l 27.7,5.2 v 4.9 l -21.7,7.6 21.7,8.2 v 4.8 z" /><path
       id="path13"
       d="m 38.5,260.1 c -4,0 -6.1,-2.9 -6.1,-8.8 0,-1.5 0.1,-2.8 0.4,-4.1 h -1.5 c -1.8,0 -2.7,1.3 -2.7,3.9 0,2.2 0.3,4.7 1,7.4 h -4.1 c -0.6,-2.7 -1,-5.2 -1,-7.4 0,-6 2.2,-9.1 6.7,-9.1 h 13.6 v 3 l -1.8,1.8 c 1.2,1.8 1.8,3.7 1.8,5.8 0,5 -2.1,7.5 -6.3,7.5 z m -2.6,-8.8 c 0,2.5 0.8,3.7 2.5,3.7 1.8,0 2.7,-1 2.7,-3.1 0,-1.7 -0.5,-3.3 -1.6,-4.7 h -3.3 c -0.2,1.2 -0.3,2.6 -0.3,4.1 z" /><path
       id="path15"
       d="m 43.2,219 c 5.9,0 8.9,3.6 8.9,10.7 0,2.5 -0.3,4.7 -1,6.7 H 47 c 0.6,-2 1,-4.2 1,-6.7 0,-3.7 -1.5,-5.5 -4.6,-5.5 0.6,1.5 1,3.2 1,4.9 0,6 -3.3,9.1 -9.9,9.1 -6.7,0 -10,-3.5 -10,-10.5 0,-2.4 0.3,-5.2 0.8,-8.6 h 17.9 z m -14.1,5.1 c -0.3,0.8 -0.5,2 -0.5,3.6 0,3.5 2,5.3 5.9,5.3 3.8,0 5.7,-1.5 5.7,-4.6 0,-1.5 -0.3,-2.9 -1,-4.3 z" /><path
       id="path17"
       d="m 24.5,205.6 c 0,-6.2 3.1,-9.3 9.4,-9.3 0.8,0 1.7,0.1 2.5,0.2 V 210 c 2.9,0 4.3,-2.1 4.3,-6.3 0,-2.1 -0.2,-4.1 -0.6,-6.2 h 4.1 c 0.4,1.8 0.6,4 0.6,6.5 0,7.4 -3.5,11 -10.4,11 -6.6,0.1 -9.9,-3 -9.9,-9.4 z m 8.4,4.4 v -8.7 h -0.2 c -2.8,0 -4.2,1.4 -4.2,4.3 0,2.7 1.4,4.2 4.4,4.4 z" /><path
       id="path19"
       d="M 44.8,192.5 H 24.5 v -4 l 2.6,-0.6 c -1.7,-1.8 -2.6,-3.7 -2.6,-5.7 h 4.1 c 0,1.9 0.8,3.6 2.4,5.1 h 13.8 z" /><path
       id="path21"
       d="M 44.8,179.3 H 24.5 v -4 l 2.6,-0.6 C 25.4,172.9 24.5,171 24.5,169 h 4.1 c 0,1.9 0.8,3.6 2.4,5.1 h 13.8 z" /><path
       id="path23"
       d="m 43.6,134.9 c 0.9,2.4 1.4,5.1 1.4,8.1 0,9.9 -4.8,14.9 -14.4,14.9 -9.1,0 -13.6,-5 -13.6,-14.9 0,-3 0.5,-5.7 1.4,-8.1 H 23 c -1,2.4 -1.5,5 -1.5,7.7 0,6.6 3.1,10 9.2,10 6.6,0 10,-3.3 10,-10 0,-2.8 -0.5,-5.4 -1.5,-7.7 z" /><path
       id="path25"
       d="m 34.6,131.5 c -6.8,0 -10.2,-3.4 -10.2,-10.1 0,-6.7 3.4,-10.1 10.2,-10.1 6.8,0 10.2,3.4 10.2,10.1 0,6.8 -3.4,10.1 -10.2,10.1 z m 6.3,-10 c 0,-3.3 -2.1,-4.9 -6.4,-4.9 -4.1,0 -6.2,1.6 -6.2,4.9 0,3.3 2.1,4.9 6.2,4.9 4.3,0 6.4,-1.6 6.4,-4.9 z" /><path
       id="path27"
       d="M 44.8,107.6 H 24.5 v -4 l 2.6,-0.6 c -1.7,-1.8 -2.6,-3.7 -2.6,-5.7 h 4.1 c 0,1.9 0.8,3.6 2.4,5.1 h 13.8 z" /><path
       id="path29"
       d="m 24.5,85.8 c 0,-6.2 3.1,-9.3 9.4,-9.3 0.8,0 1.7,0.1 2.5,0.2 v 13.5 c 2.9,0 4.3,-2.1 4.3,-6.3 0,-2.1 -0.2,-4.1 -0.6,-6.2 h 4.1 c 0.4,1.8 0.6,4 0.6,6.5 0,7.4 -3.5,11 -10.4,11 -6.6,0.2 -9.9,-3 -9.9,-9.4 z m 8.4,4.4 v -8.7 h -0.2 c -2.8,0 -4.2,1.4 -4.2,4.3 0,2.7 1.4,4.2 4.4,4.4 z" /></g><g
     transform="translate(0.83501383,-3.31748)"
     id="g43"><path
       style="fill:#dd0000"
       id="path45"
       d="m 54,322.9 c -0.3,-0.6 -0.9,-0.9 -1.6,-0.9 -4.5,0 -9,0 -13.6,0 -1.1,0 -1.8,0.4 -2.4,1.4 -1.1,2.1 -2.3,4.1 -3.5,6.1 -0.5,0.9 -1,1.7 -1.5,2.6 0,0.1 -0.1,0.1 -0.2,0.2 -0.1,-0.1 -0.1,-0.1 -0.2,-0.2 -0.5,-0.9 -1,-1.7 -1.5,-2.6 -1.2,-2 -2.4,-4.1 -3.5,-6.1 -0.5,-1 -1.2,-1.5 -2.4,-1.5 -4.5,0 -9,0 -13.6,0 -0.7,0 -1.3,0.3 -1.6,0.9 -0.4,0.6 -0.3,1.3 0.1,1.9 0.5,0.9 1,1.7 1.5,2.6 1.4,2.4 2.8,4.8 4.2,7.3 1.5,2.5 2.9,5.1 4.4,7.6 1.3,2.3 2.6,4.5 3.9,6.8 0.4,0.6 0.9,0.9 1.6,0.9 0.7,0 1.2,-0.4 1.5,-1 0.3,-0.6 0.7,-1.2 1.1,-1.8 1.2,-2 2.3,-4.1 3.5,-6.1 0.3,-0.5 0.5,-0.9 0.8,-1.5 0.3,0.5 0.6,1 0.8,1.4 1.2,2 2.3,4.1 3.5,6.1 0.4,0.6 0.7,1.2 1.1,1.8 0.3,0.6 0.8,1 1.5,1 0.7,0 1.3,-0.3 1.6,-0.9 1.3,-2.3 2.6,-4.5 3.9,-6.8 1.5,-2.5 2.9,-5.1 4.4,-7.6 1.4,-2.4 2.8,-4.8 4.2,-7.3 0.5,-0.9 1,-1.8 1.5,-2.6 0.8,-0.4 0.8,-1.1 0.5,-1.7 z m -24.9,13.4 c -1.3,2.3 -2.7,4.6 -4,7 -0.3,0.4 -0.5,0.9 -0.8,1.4 -3.7,-6.4 -7.3,-12.7 -11,-19.1 0.2,0 0.3,0 0.5,0 3,0 6,0 9,0 0.3,0 0.5,0.1 0.7,0.4 1.6,2.8 3.2,5.6 4.8,8.4 0.3,0.5 0.6,0.9 0.8,1.4 0.1,0.1 0.1,0.4 0,0.5 z m 9.2,8.4 c -0.3,-0.5 -0.6,-1 -0.8,-1.5 -1.3,-2.3 -2.7,-4.6 -4,-7 -0.1,-0.2 -0.1,-0.4 0,-0.6 0.2,-0.5 0.5,-0.9 0.8,-1.5 1.6,-2.8 3.2,-5.6 4.8,-8.4 0.2,-0.3 0.4,-0.4 0.7,-0.4 3,0 6,0 9,0 0.1,0 0.3,0 0.5,0 -3.7,6.7 -7.3,13 -11,19.4 z"
       class="st0" /></g><g
     transform="translate(-4.025e-6,8.374999)"
     id="text108"
     style="font-style:normal;font-weight:normal;font-size:40px;line-height:1.25;font-family:sans-serif;letter-spacing:0px;word-spacing:0px;fill:#000000;fill-opacity:1;stroke:none"
     aria-label="Sláinte"><path
       id="path110"
       style="font-style:italic;font-variant:normal;font-weight:bold;font-stretch:normal;font-size:13.33333302px;font-family:sans-serif;-inkscape-font-specification:'sans-serif Bold Italic'"
       d="m 14.662761,43.439648 -0.403646,2.057292 q -0.735677,-0.364584 -1.451823,-0.540365 -0.716146,-0.182292 -1.39974,-0.182292 -0.9375,0 -1.4648434,0.292969 -0.5208334,0.292969 -0.5208334,0.813802 0,0.332031 0.2278646,0.520833 0.234375,0.182292 0.9570312,0.358073 l 1.028646,0.253907 q 1.289062,0.32552 1.888021,0.94401 0.605468,0.611979 0.605468,1.588542 0,1.582031 -1.204427,2.539062 -1.197916,0.957031 -3.2226559,0.957031 -0.9440104,0 -1.8815103,-0.175781 Q 6.8893232,52.69095 5.9973961,52.345898 l 0.3971355,-2.115886 q 0.8658853,0.501302 1.6796874,0.748698 0.8203125,0.247396 1.6145833,0.247396 0.8593747,0 1.3932287,-0.351562 0.540365,-0.351563 0.540365,-0.898438 0,-0.358073 -0.240885,-0.553385 -0.240886,-0.201823 -1.054688,-0.410157 L 9.3046877,48.758658 Q 8.1718753,48.47871 7.6184899,47.873242 7.0651045,47.267773 7.0651045,46.304231 q 0,-1.516927 1.1588541,-2.428385 1.1653645,-0.917969 3.1315104,-0.917969 0.78776,0 1.614583,0.123698 0.833334,0.117187 1.692709,0.358073 z" /><path
       id="path112"
       style="font-style:italic;font-variant:normal;font-weight:bold;font-stretch:normal;font-size:13.33333302px;font-family:sans-serif;-inkscape-font-specification:'sans-serif Bold Italic'"
       d="M 17.78125,42.723502 H 20.125 L 18.152344,52.85371 h -2.33724 z" /><path
       id="path114"
       style="font-style:italic;font-variant:normal;font-weight:bold;font-stretch:normal;font-size:13.33333302px;font-family:sans-serif;-inkscape-font-specification:'sans-serif Bold Italic'"
       d="m 24.376302,49.57246 q -0.872396,0 -1.321615,0.273438 -0.442708,0.266927 -0.442708,0.794271 0,0.397135 0.260417,0.625 0.266927,0.227864 0.729166,0.227864 0.716146,0 1.197917,-0.429687 0.481771,-0.436198 0.644531,-1.223959 l 0.05208,-0.266927 z m 3.639323,-0.878906 -0.813802,4.160156 h -2.330729 l 0.195312,-1.080729 q -0.572917,0.651042 -1.210937,0.963542 -0.638021,0.305989 -1.386719,0.305989 -1.035156,0 -1.647135,-0.533854 -0.605469,-0.540364 -0.605469,-1.451823 0,-1.393229 1.074219,-2.128906 1.080729,-0.742187 3.111979,-0.742187 h 1.373698 l 0.02604,-0.182292 q 0.01953,-0.09115 0.01953,-0.130208 0.0065,-0.03906 0.0065,-0.07161 0,-0.429688 -0.410156,-0.644531 -0.403646,-0.221354 -1.204427,-0.221354 -0.722657,0 -1.39974,0.149739 -0.677083,0.14974 -1.308594,0.449219 l 0.351563,-1.777344 q 0.729166,-0.182291 1.490885,-0.273437 0.768229,-0.09766 1.588542,-0.09766 1.621094,0 2.408854,0.559896 0.78776,0.553386 0.78776,1.692709 0,0.221354 -0.03255,0.488281 -0.02604,0.260416 -0.08463,0.566406 z m -1.575521,-6.503906 h 1.907552 l -2.851562,2.447917 H 24.1875 Z" /><path
       id="path116"
       style="font-style:italic;font-variant:normal;font-weight:bold;font-stretch:normal;font-size:13.33333302px;font-family:sans-serif;-inkscape-font-specification:'sans-serif Bold Italic'"
       d="m 30.828125,45.562044 h 2.34375 l -1.425781,7.291666 h -2.33724 z M 31.375,42.723502 h 2.34375 l -0.371094,1.901042 h -2.35026 z" /><path
       id="path118"
       style="font-style:italic;font-variant:normal;font-weight:bold;font-stretch:normal;font-size:13.33333302px;font-family:sans-serif;-inkscape-font-specification:'sans-serif Bold Italic'"
       d="m 42.182291,48.413606 -0.865886,4.440104 h -2.337239 l 0.735677,-3.802083 q 0.07813,-0.371094 0.117187,-0.625 0.04557,-0.260417 0.04557,-0.410156 0,-0.416667 -0.234375,-0.644532 -0.227865,-0.227864 -0.651042,-0.227864 -0.722656,0 -1.243489,0.566406 -0.514323,0.559896 -0.716146,1.55599 l -0.703125,3.587239 h -2.337239 l 1.41927,-7.291666 h 2.34375 l -0.214843,1.067708 q 0.644531,-0.63151 1.295572,-0.9375 0.651042,-0.30599 1.360677,-0.30599 1.009115,0 1.55599,0.527344 0.546875,0.527344 0.546875,1.484375 0,0.208333 -0.03255,0.46224 -0.02604,0.253906 -0.08463,0.553385 z" /><path
       id="path120"
       style="font-style:italic;font-variant:normal;font-weight:bold;font-stretch:normal;font-size:13.33333302px;font-family:sans-serif;-inkscape-font-specification:'sans-serif Bold Italic'"
       d="m 47.885414,43.491731 -0.397135,2.070313 h 2.382812 L 49.53906,47.22871 h -2.382812 l -0.598959,3.085938 q -0.02604,0.104166 -0.03906,0.175781 -0.0065,0.07162 -0.0065,0.136719 0,0.299479 0.195313,0.429687 0.201823,0.130209 0.670573,0.130209 h 1.204427 l -0.332031,1.666666 h -1.959636 q -1.054687,0 -1.608073,-0.442708 -0.553385,-0.442708 -0.553385,-1.276042 0,-0.182291 0.01953,-0.390625 0.01953,-0.208333 0.05859,-0.423177 l 0.598958,-3.092448 h -1.145833 l 0.31901,-1.666666 h 1.158855 l 0.403645,-2.070313 z" /><path
       id="path122"
       style="font-style:italic;font-variant:normal;font-weight:bold;font-stretch:normal;font-size:13.33333302px;font-family:sans-serif;-inkscape-font-specification:'sans-serif Bold Italic'"
       d="m 57.852865,49.481314 -0.07813,0.371094 h -5.455729 q 0,0.03906 -0.0065,0.117188 -0.0065,0.07161 -0.0065,0.110677 0,0.709635 0.423177,1.061198 0.429687,0.351562 1.282552,0.351562 0.735677,0 1.549479,-0.221354 0.820313,-0.221354 1.71875,-0.657552 l -0.358073,1.809896 q -0.852864,0.3125 -1.699219,0.462239 -0.839843,0.15625 -1.712239,0.15625 -1.705729,0 -2.636719,-0.78776 -0.924479,-0.787761 -0.924479,-2.226563 0,-0.833333 0.292969,-1.614583 0.299479,-0.78776 0.865885,-1.438802 0.670573,-0.78125 1.601563,-1.184896 0.9375,-0.403646 2.076823,-0.403646 1.477864,0 2.343749,0.787761 0.872396,0.78776 0.872396,2.122396 0,0.260416 -0.03906,0.553385 -0.03255,0.286458 -0.110677,0.63151 z m -2.200521,-1.067708 q 0.01953,-0.08463 0.02604,-0.169271 0.01302,-0.09115 0.01302,-0.175781 0,-0.520833 -0.3125,-0.826823 -0.3125,-0.305989 -0.846354,-0.305989 -0.683593,0 -1.165364,0.377604 -0.475261,0.371093 -0.729167,1.10026 z" /></g><g
     transform="translate(-1.2075e-5,314.52537)"
     aria-label="Sláinte"
     style="font-style:normal;font-weight:normal;font-size:40px;line-height:1.25;font-family:sans-serif;letter-spacing:0px;word-spacing:0px;fill:#000000;fill-opacity:1;stroke:none"
     id="g166"><path
       d="m 14.662761,43.439648 -0.403646,2.057292 q -0.735677,-0.364584 -1.451823,-0.540365 -0.716146,-0.182292 -1.39974,-0.182292 -0.9375,0 -1.4648434,0.292969 -0.5208334,0.292969 -0.5208334,0.813802 0,0.332031 0.2278646,0.520833 0.234375,0.182292 0.9570312,0.358073 l 1.028646,0.253907 q 1.289062,0.32552 1.888021,0.94401 0.605468,0.611979 0.605468,1.588542 0,1.582031 -1.204427,2.539062 -1.197916,0.957031 -3.2226559,0.957031 -0.9440104,0 -1.8815103,-0.175781 Q 6.8893232,52.69095 5.9973961,52.345898 l 0.3971355,-2.115886 q 0.8658853,0.501302 1.6796874,0.748698 0.8203125,0.247396 1.6145833,0.247396 0.8593747,0 1.3932287,-0.351562 0.540365,-0.351563 0.540365,-0.898438 0,-0.358073 -0.240885,-0.553385 -0.240886,-0.201823 -1.054688,-0.410157 L 9.3046877,48.758658 Q 8.1718753,48.47871 7.6184899,47.873242 7.0651045,47.267773 7.0651045,46.304231 q 0,-1.516927 1.1588541,-2.428385 1.1653645,-0.917969 3.1315104,-0.917969 0.78776,0 1.614583,0.123698 0.833334,0.117187 1.692709,0.358073 z"
       style="font-style:italic;font-variant:normal;font-weight:bold;font-stretch:normal;font-size:13.33333302px;font-family:sans-serif;-inkscape-font-specification:'sans-serif Bold Italic'"
       id="path152" /><path
       d="M 17.78125,42.723502 H 20.125 L 18.152344,52.85371 h -2.33724 z"
       style="font-style:italic;font-variant:normal;font-weight:bold;font-stretch:normal;font-size:13.33333302px;font-family:sans-serif;-inkscape-font-specification:'sans-serif Bold Italic'"
       id="path154" /><path
       d="m 24.376302,49.57246 q -0.872396,0 -1.321615,0.273438 -0.442708,0.266927 -0.442708,0.794271 0,0.397135 0.260417,0.625 0.266927,0.227864 0.729166,0.227864 0.716146,0 1.197917,-0.429687 0.481771,-0.436198 0.644531,-1.223959 l 0.05208,-0.266927 z m 3.639323,-0.878906 -0.813802,4.160156 h -2.330729 l 0.195312,-1.080729 q -0.572917,0.651042 -1.210937,0.963542 -0.638021,0.305989 -1.386719,0.305989 -1.035156,0 -1.647135,-0.533854 -0.605469,-0.540364 -0.605469,-1.451823 0,-1.393229 1.074219,-2.128906 1.080729,-0.742187 3.111979,-0.742187 h 1.373698 l 0.02604,-0.182292 q 0.01953,-0.09115 0.01953,-0.130208 0.0065,-0.03906 0.0065,-0.07161 0,-0.429688 -0.410156,-0.644531 -0.403646,-0.221354 -1.204427,-0.221354 -0.722657,0 -1.39974,0.149739 -0.677083,0.14974 -1.308594,0.449219 l 0.351563,-1.777344 q 0.729166,-0.182291 1.490885,-0.273437 0.768229,-0.09766 1.588542,-0.09766 1.621094,0 2.408854,0.559896 0.78776,0.553386 0.78776,1.692709 0,0.221354 -0.03255,0.488281 -0.02604,0.260416 -0.08463,0.566406 z m -1.575521,-6.503906 h 1.907552 l -2.851562,2.447917 H 24.1875 Z"
       style="font-style:italic;font-variant:normal;font-weight:bold;font-stretch:normal;font-size:13.33333302px;font-family:sans-serif;-inkscape-font-specification:'sans-serif Bold Italic'"
       id="path156" /><path
       d="m 30.828125,45.562044 h 2.34375 l -1.425781,7.291666 h -2.33724 z M 31.375,42.723502 h 2.34375 l -0.371094,1.901042 h -2.35026 z"
       style="font-style:italic;font-variant:normal;font-weight:bold;font-stretch:normal;font-size:13.33333302px;font-family:sans-serif;-inkscape-font-specification:'sans-serif Bold Italic'"
       id="path158" /><path
       d="m 42.182291,48.413606 -0.865886,4.440104 h -2.337239 l 0.735677,-3.802083 q 0.07813,-0.371094 0.117187,-0.625 0.04557,-0.260417 0.04557,-0.410156 0,-0.416667 -0.234375,-0.644532 -0.227865,-0.227864 -0.651042,-0.227864 -0.722656,0 -1.243489,0.566406 -0.514323,0.559896 -0.716146,1.55599 l -0.703125,3.587239 h -2.337239 l 1.41927,-7.291666 h 2.34375 l -0.214843,1.067708 q 0.644531,-0.63151 1.295572,-0.9375 0.651042,-0.30599 1.360677,-0.30599 1.009115,0 1.55599,0.527344 0.546875,0.527344 0.546875,1.484375 0,0.208333 -0.03255,0.46224 -0.02604,0.253906 -0.08463,0.553385 z"
       style="font-style:italic;font-variant:normal;font-weight:bold;font-stretch:normal;font-size:13.33333302px;font-family:sans-serif;-inkscape-font-specification:'sans-serif Bold Italic'"
       id="path160" /><path
       d="m 47.885414,43.491731 -0.397135,2.070313 h 2.382812 L 49.53906,47.22871 h -2.382812 l -0.598959,3.085938 q -0.02604,0.104166 -0.03906,0.175781 -0.0065,0.07162 -0.0065,0.136719 0,0.299479 0.195313,0.429687 0.201823,0.130209 0.670573,0.130209 h 1.204427 l -0.332031,1.666666 h -1.959636 q -1.054687,0 -1.608073,-0.442708 -0.553385,-0.442708 -0.553385,-1.276042 0,-0.182291 0.01953,-0.390625 0.01953,-0.208333 0.05859,-0.423177 l 0.598958,-3.092448 h -1.145833 l 0.31901,-1.666666 h 1.158855 l 0.403645,-2.070313 z"
       style="font-style:italic;font-variant:normal;font-weight:bold;font-stretch:normal;font-size:13.33333302px;font-family:sans-serif;-inkscape-font-specification:'sans-serif Bold Italic'"
       id="path162" /><path
       d="m 57.852865,49.481314 -0.07813,0.371094 h -5.455729 q 0,0.03906 -0.0065,0.117188 -0.0065,0.07161 -0.0065,0.110677 0,0.709635 0.423177,1.061198 0.429687,0.351562 1.282552,0.351562 0.735677,0 1.549479,-0.221354 0.820313,-0.221354 1.71875,-0.657552 l -0.358073,1.809896 q -0.852864,0.3125 -1.699219,0.462239 -0.839843,0.15625 -1.712239,0.15625 -1.705729,0 -2.636719,-0.78776 -0.924479,-0.787761 -0.924479,-2.226563 0,-0.833333 0.292969,-1.614583 0.299479,-0.78776 0.865885,-1.438802 0.670573,-0.78125 1.601563,-1.184896 0.9375,-0.403646 2.076823,-0.403646 1.477864,0 2.343749,0.787761 0.872396,0.78776 0.872396,2.122396 0,0.260416 -0.03906,0.553385 -0.03255,0.286458 -0.110677,0.63151 z m -2.200521,-1.067708 q 0.01953,-0.08463 0.02604,-0.169271 0.01302,-0.09115 0.01302,-0.175781 0,-0.520833 -0.3125,-0.826823 -0.3125,-0.305989 -0.846354,-0.305989 -0.683593,0 -1.165364,0.377604 -0.475261,0.371093 -0.729167,1.10026 z"
       style="font-style:italic;font-variant:normal;font-weight:bold;font-stretch:normal;font-size:13.33333302px;font-family:sans-serif;-inkscape-font-specification:'sans-serif Bold Italic'"
       id="path164" /></g></svg>
