<?xml version="1.0" encoding="utf-8"?>
<!-- Generator: Adobe Illustrator 22.0.1, SVG Export Plug-In . SVG Version: 6.00 Build 0)  -->
<svg version="1.1"
	 id="Layer_1" inkscape:export-xdpi="90" inkscape:export-ydpi="90" inkscape:version="0.92.2 5c3e80d, 2017-08-06" sodipodi:docname="about-slainte.svg" xmlns:inkscape="http://www.inkscape.org/namespaces/inkscape" xmlns:sodipodi="http://sodipodi.sourceforge.net/DTD/sodipodi-0.dtd" xmlns:svg="http://www.w3.org/2000/svg"
	 xmlns="http://www.w3.org/2000/svg" xmlns:xlink="http://www.w3.org/1999/xlink" x="0px" y="0px" viewBox="0 0 64 380"
	 style="enable-background:new 0 0 64 380;" xml:space="preserve">
<style type="text/css">
	.st0{fill:#CE0F17;}
	.st1{fill:#D80000;}
</style>
<g>
	<path class="st0" d="M56.1,14.9c-0.4-0.7-1-1-1.8-1c-4.9,0-9.8,0.1-14.7,0c-1.2,0-2,0.5-2.6,1.5c-1.2,2.2-2.6,4.4-3.8,6.7
		c-0.5,0.9-1.1,1.9-1.6,2.8c0,0.1-0.1,0.1-0.2,0.2c-0.1-0.1-0.1-0.1-0.2-0.2c-0.5-0.9-1.1-1.9-1.6-2.8c-1.3-2.2-2.6-4.4-3.8-6.7
		c-0.6-1-1.3-1.5-2.6-1.5c-4.9,0-9.8,0-14.7,0c-0.8,0-1.4,0.3-1.8,1c-0.4,0.7-0.3,1.4,0.1,2.1c0.6,0.9,1.1,1.9,1.7,2.8
		c1.5,2.6,3,5.3,4.5,7.9c1.6,2.8,3.2,5.5,4.8,8.3c1.4,2.5,2.9,4.9,4.3,7.4c0.4,0.7,1,1,1.8,1c0.8,0,1.3-0.4,1.7-1.1
		c0.4-0.7,0.8-1.3,1.1-2c1.3-2.2,2.5-4.4,3.8-6.6c0.3-0.5,0.6-1,0.9-1.5c0.3,0.5,0.6,1,0.9,1.5c1.3,2.2,2.5,4.4,3.8,6.6
		c0.4,0.7,0.8,1.3,1.1,2c0.4,0.7,0.9,1.1,1.7,1.1c0.8,0,1.4-0.3,1.8-1c1.4-2.5,2.9-4.9,4.3-7.4c1.6-2.8,3.2-5.5,4.8-8.3
		c1.5-2.6,3-5.3,4.5-7.9c0.5-1,1.1-1.9,1.7-2.8C56.4,16.2,56.5,15.5,56.1,14.9z M29.1,29.5c-1.4,2.5-2.9,5-4.4,7.6
		c-0.3,0.5-0.6,1-0.9,1.5c-4-7-8-13.8-12-20.8c0.2,0,0.4,0,0.5,0c3.3,0,6.5,0,9.8,0c0.4,0,0.6,0.1,0.7,0.4c1.7,3.1,3.5,6.1,5.3,9.2
		c0.3,0.5,0.6,1,0.9,1.5C29.2,29,29.2,29.3,29.1,29.5z M39.1,38.5c-0.3-0.6-0.6-1.1-0.9-1.5c-1.5-2.5-2.9-5-4.4-7.6
		c-0.1-0.2-0.1-0.5,0-0.7c0.3-0.5,0.6-1,0.9-1.5c1.8-3,3.5-6.1,5.3-9.2c0.2-0.3,0.4-0.4,0.7-0.4c3.3,0,6.5,0,9.8,0
		c0.2,0,0.3,0,0.5,0C47,24.7,43.1,31.6,39.1,38.5z"/>
</g>
<g>
	<path d="M52,212.5c0,2.7-0.5,5.3-1.5,7.7c-1,2.4-2.4,4.5-4.1,6.3c-1.8,1.8-3.9,3.2-6.3,4.2c-2.4,1-5.1,1.6-7.9,1.6h-0.1
		c-2.8,0-5.4-0.5-7.8-1.5c-2.4-1-4.5-2.4-6.3-4.2c-1.8-1.8-3.2-3.9-4.2-6.4c-1-2.5-1.5-5.1-1.5-8.1c0-2,0.2-3.8,0.6-5.4
		c0.4-1.6,0.9-3.1,1.6-4.4c0.7-1.3,1.6-2.5,2.5-3.6c1-1.1,2.1-2,3.2-2.9l6.2,8c-1.4,1.1-2.5,2.3-3.3,3.6c-0.8,1.3-1.2,2.9-1.2,4.8
		c0,1.3,0.3,2.6,0.8,3.7c0.5,1.1,1.2,2.1,2.2,2.9c0.9,0.8,2,1.4,3.2,1.9c1.2,0.5,2.6,0.7,3.9,0.7h0.1c1.4,0,2.8-0.2,4-0.7
		c1.3-0.5,2.3-1.1,3.3-1.9c0.9-0.8,1.6-1.8,2.2-2.9c0.5-1.1,0.8-2.3,0.8-3.7c0-1-0.1-1.9-0.3-2.7s-0.5-1.6-1-2.2
		c-0.4-0.7-0.9-1.3-1.5-1.9c-0.6-0.6-1.2-1.2-1.9-1.8l5.7-8c1.2,0.9,2.4,1.9,3.4,3c1.1,1.1,2,2.3,2.7,3.7c0.8,1.4,1.4,2.9,1.8,4.6
		S52,210.4,52,212.5z"/>
	<path d="M24.5,158.3c-2.3,1-4.3,2.3-6,4c-0.1,0.1-0.2,0.2-0.3,0.3c-1.8,1.8-3.2,4-4.2,6.5c-1,2.5-1.6,5.3-1.6,8.2s0.5,5.7,1.6,8.2
		c1,2.5,2.5,4.7,4.3,6.6c1.8,1.9,3.9,3.3,6.3,4.3c2.4,1,5,1.6,7.7,1.6h0.1c2.7,0,5.3-0.5,7.7-1.6c2.4-1,4.5-2.5,6.3-4.3
		c1.8-1.8,3.2-4,4.2-6.5c1-2.5,1.5-5.3,1.5-8.2s-0.5-5.7-1.5-8.2c-1-2.5-2.5-4.7-4.3-6.6c-0.1-0.1-0.2-0.2-0.3-0.3
		c-1.7-1.7-3.7-3-6-4c-2.4-1-5-1.6-7.7-1.6h-0.1C29.5,156.7,26.9,157.2,24.5,158.3z M32.4,167.5c1.4,0,2.7,0.2,3.9,0.7
		c1.2,0.5,2.3,1.1,3.3,2c0.9,0.8,1.7,1.9,2.2,3.1c0.5,1.2,0.8,2.5,0.8,4c0,1.5-0.3,2.8-0.8,4c-0.6,1.2-1.3,2.2-2.3,3.1
		c-0.9,0.9-2,1.5-3.3,2c-1.2,0.5-2.5,0.7-3.9,0.7h-0.1c-1.4,0-2.7-0.2-3.9-0.7c-1.2-0.5-2.3-1.1-3.3-2c-0.9-0.9-1.7-1.9-2.2-3.1
		c-0.5-1.2-0.8-2.5-0.8-4c0-1.5,0.3-2.8,0.9-4c0.6-1.2,1.3-2.3,2.3-3.1c1-0.9,2.1-1.5,3.3-2c1.2-0.5,2.5-0.7,3.9-0.7H32.4z"/>
	<path d="M44.2,129l-6.1,4.2c-0.7-1.6-1.6-3-2.7-4.2c-0.5-0.6-1.1-1.1-1.8-1.6c-1.9-1.4-4.4-2.1-7.3-2.1h-0.1
		c-3.8,0-6.7,1.1-8.9,3.4c-0.1,0.1-0.2,0.2-0.3,0.3c-1.2,1.2-2.1,2.8-2.8,4.7c-0.7,2-1.1,4.5-1.1,7.5v18.1h5.3c1.7-1.7,3.7-3,6-4
		c2.4-1,5-1.6,7.7-1.6h0.1c2.7,0,5.3,0.5,7.7,1.6c2.3,1,4.3,2.3,6,4h5.4v-10.6H39.9V144l11.6-7.7v-12.2L44.2,129z M27,136
		c1.4,0,2.5,0.5,3.3,1.5c0.8,1,1.2,2.4,1.2,4.2v7h-9.2v-6.9c0-1.8,0.4-3.2,1.1-4.2c0.8-1,1.9-1.5,3.4-1.5H27z"/>
	<path d="M42.5,95v20.6h-6.1V97.2H28v18.4h-5.8V95.3h-9V126H17c0.1-0.1,0.2-0.2,0.3-0.3c2.2-2.3,5.2-3.4,8.9-3.4h0.1
		c3,0,5.4,0.7,7.3,2.1c0.3,0.2,0.6,0.5,0.9,0.8c0.3,0.3,0.6,0.5,0.8,0.8h8.8l0.8-0.5l6.5-4.4l0,0V95H42.5z"/>
</g>
<g>
	<path d="M5.1,52.3H8l2.4,3.9l2.4-3.9h2.9v10h-2.8v-5.7l-2.5,3.9h-0.1l-2.5-3.9v5.7H5.1V52.3z"/>
	<path d="M22.5,62.5c-0.8,0-1.5-0.1-2.1-0.4c-0.7-0.3-1.2-0.6-1.7-1.1c-0.5-0.5-0.8-1-1.1-1.6c-0.3-0.6-0.4-1.3-0.4-2v0
		c0-0.7,0.1-1.4,0.4-2c0.3-0.6,0.6-1.2,1.1-1.7c0.5-0.5,1.1-0.8,1.7-1.1c0.7-0.3,1.4-0.4,2.1-0.4s1.5,0.1,2.1,0.4
		c0.7,0.3,1.2,0.6,1.7,1.1c0.5,0.5,0.8,1,1.1,1.6c0.3,0.6,0.4,1.3,0.4,2v0c0,0.7-0.1,1.4-0.4,2c-0.3,0.6-0.6,1.2-1.1,1.7
		c-0.5,0.5-1.1,0.8-1.7,1.1C24,62.3,23.3,62.5,22.5,62.5z M22.5,60c0.4,0,0.7-0.1,1-0.2c0.3-0.1,0.6-0.3,0.8-0.6s0.4-0.5,0.5-0.8
		c0.1-0.3,0.2-0.7,0.2-1v0c0-0.4-0.1-0.7-0.2-1c-0.1-0.3-0.3-0.6-0.5-0.9c-0.2-0.2-0.5-0.4-0.8-0.6c-0.3-0.1-0.7-0.2-1-0.2
		c-0.4,0-0.7,0.1-1,0.2c-0.3,0.1-0.6,0.3-0.8,0.6c-0.2,0.2-0.4,0.5-0.5,0.8c-0.1,0.3-0.2,0.7-0.2,1v0c0,0.4,0.1,0.7,0.2,1
		s0.3,0.6,0.5,0.9c0.2,0.2,0.5,0.4,0.8,0.6S22.1,60,22.5,60z"/>
	<path d="M29.3,52.3h2.6l4.1,5.3v-5.3h2.7v10h-2.4L32,56.8v5.5h-2.7V52.3z"/>
	<path d="M43,54.7h-3v-2.4h8.8v2.4h-3v7.6H43V54.7z"/>
	<path d="M49.9,52.3h8v2.4h-5.3v1.5h4.8v2.2h-4.8v1.6H58v2.4h-8.1V52.3z"/>
	<path d="M9.9,74.3c-0.7,0-1.4-0.1-2-0.4s-1.2-0.6-1.6-1.1c-0.5-0.5-0.8-1-1.1-1.6c-0.3-0.6-0.4-1.3-0.4-2.1v0c0-0.7,0.1-1.4,0.4-2
		c0.3-0.6,0.6-1.2,1.1-1.7c0.5-0.5,1-0.8,1.7-1.1C8.5,64.1,9.2,64,10,64c0.5,0,1,0,1.4,0.1c0.4,0.1,0.8,0.2,1.1,0.4
		c0.3,0.2,0.7,0.4,0.9,0.7s0.5,0.5,0.7,0.8l-2.1,1.6c-0.3-0.4-0.6-0.6-0.9-0.9s-0.8-0.3-1.2-0.3c-0.4,0-0.7,0.1-1,0.2
		c-0.3,0.1-0.5,0.3-0.7,0.6c-0.2,0.2-0.4,0.5-0.5,0.8c-0.1,0.3-0.2,0.7-0.2,1v0c0,0.4,0.1,0.7,0.2,1C7.9,70.5,8,70.8,8.3,71
		c0.2,0.2,0.5,0.4,0.7,0.6s0.6,0.2,1,0.2c0.3,0,0.5,0,0.7-0.1c0.2-0.1,0.4-0.1,0.6-0.2c0.2-0.1,0.3-0.2,0.5-0.4
		c0.2-0.1,0.3-0.3,0.5-0.5l2.1,1.5c-0.2,0.3-0.5,0.6-0.8,0.9c-0.3,0.3-0.6,0.5-1,0.7s-0.8,0.4-1.2,0.5C10.9,74.3,10.4,74.3,9.9,74.3
		z"/>
	<path d="M19.3,64.1H22l4.3,10.1h-3l-0.7-1.8h-3.9L18,74.1h-2.9L19.3,64.1z M21.8,70.2l-1.1-2.8l-1.1,2.8H21.8z"/>
	<path d="M27.6,64.2h4.7c0.8,0,1.4,0.1,2,0.3c0.5,0.2,1,0.5,1.3,0.8c0.6,0.6,0.9,1.3,0.9,2.3v0c0,0.8-0.2,1.4-0.6,1.9
		c-0.4,0.5-0.9,0.9-1.5,1.2l2.4,3.5h-3.2l-2-3h0h-1.2v3h-2.8V64.2z M32.2,69c0.5,0,0.8-0.1,1.1-0.3c0.3-0.2,0.4-0.5,0.4-0.9v0
		c0-0.4-0.1-0.7-0.4-0.9c-0.3-0.2-0.6-0.3-1.1-0.3h-1.8V69H32.2z"/>
	<path d="M38.3,64.2h2.8v7.6h4.8v2.4h-7.6V64.2z"/>
	<path d="M52.5,74.3c-0.8,0-1.5-0.1-2.1-0.4c-0.7-0.3-1.2-0.6-1.7-1.1c-0.5-0.5-0.8-1-1.1-1.6c-0.3-0.6-0.4-1.3-0.4-2v0
		c0-0.7,0.1-1.4,0.4-2c0.3-0.6,0.6-1.2,1.1-1.7c0.5-0.5,1.1-0.8,1.7-1.1s1.4-0.4,2.1-0.4s1.5,0.1,2.1,0.4s1.2,0.6,1.7,1.1
		c0.5,0.5,0.8,1,1.1,1.6c0.3,0.6,0.4,1.3,0.4,2v0c0,0.7-0.1,1.4-0.4,2c-0.3,0.6-0.6,1.2-1.1,1.7c-0.5,0.5-1.1,0.8-1.7,1.1
		C54,74.2,53.3,74.3,52.5,74.3z M52.5,71.8c0.4,0,0.7-0.1,1-0.2c0.3-0.1,0.6-0.3,0.8-0.6c0.2-0.2,0.4-0.5,0.5-0.8
		c0.1-0.3,0.2-0.7,0.2-1v0c0-0.4-0.1-0.7-0.2-1c-0.1-0.3-0.3-0.6-0.5-0.9c-0.2-0.2-0.5-0.4-0.8-0.6c-0.3-0.1-0.7-0.2-1-0.2
		s-0.7,0.1-1,0.2c-0.3,0.1-0.6,0.3-0.8,0.6s-0.4,0.5-0.5,0.8c-0.1,0.3-0.2,0.7-0.2,1v0c0,0.4,0.1,0.7,0.2,1s0.3,0.6,0.5,0.9
		c0.2,0.2,0.5,0.4,0.8,0.6C51.8,71.8,52.1,71.8,52.5,71.8z"/>
</g>
<path d="M44.2,126l-6.1,4.1c-0.7-1.6-1.6-3-2.7-4.1H44.2z"/>
<g>
	<polygon class="st1" points="13.1,296.3 15.3,297.1 38.9,304.9 50.6,308.7 50.6,317.8 29.1,325.2 50.6,332.7 50.6,341.7 
		13.1,354.2 13.1,343.3 34.6,336.8 12.9,329.6 12.9,320.7 34.6,313.5 13.1,307 	"/>
	<path class="st1" d="M28.6,267.2h16.8c0.2,0.2,0.4,0.5,0.6,0.7c0.4,0.5,0.7,1,1.1,1.6c0.7,1.1,1.4,2.3,2,3.6c0.2,0.3,0.2,0.7,0.4,1
		c0.2,0.7,0.5,1.4,0.7,2.1c0.7,2.1,0.9,4.5,0.9,7.1c0,1.5-0.1,2.9-0.3,4.2c-0.1,0.7-0.2,1.3-0.4,2c-0.1,0.3-0.2,0.7-0.2,1
		c-0.1,0.3-0.2,0.7-0.3,0.9c-0.1,0.3-0.2,0.6-0.4,0.9c-0.2,0.6-0.6,1.1-0.8,1.7c-0.3,0.6-0.7,1.1-1,1.6c-0.5,0.7-1.1,1.5-1.7,2.1
		c-1.7,1.8-3.8,3.2-6.1,4.3c-0.2,0.1-0.5,0.2-0.7,0.3l0,0l-23.7-7.7c-0.1-0.1-0.2-0.2-0.2-0.3c-0.3-0.5-0.6-1.1-0.9-1.7
		c-0.2-0.3-0.2-0.6-0.4-0.9c-1-2.5-1.5-5.1-1.5-8c0-2.5,0.2-4.7,0.8-6.7c0.2-0.7,0.4-1.3,0.7-1.9c0.1-0.3,0.2-0.6,0.4-0.9
		s0.2-0.6,0.4-0.9c0.2-0.2,0.2-0.6,0.4-0.8c0.2-0.3,0.3-0.6,0.5-0.9c0.2-0.3,0.4-0.7,0.7-1c0-0.1,0.1-0.1,0.1-0.2
		c0.3-0.4,0.7-0.9,1-1.3c0.1-0.1,0.2-0.2,0.2-0.3c0.1-0.1,0.2-0.2,0.2-0.2l7.3,6.1c-0.2,0.3-0.6,0.7-0.8,1c-0.4,0.6-0.7,1.1-1.1,1.7
		c-0.2,0.3-0.3,0.6-0.5,0.9c-0.1,0.2-0.2,0.3-0.2,0.5c-0.6,1.4-0.9,3-0.9,4.8c0,1.3,0.2,2.6,0.8,3.8c0.4,0.8,0.9,1.6,1.6,2.3
		c0.1,0.1,0.2,0.2,0.3,0.3c0.1,0.1,0.2,0.2,0.3,0.3c0.9,0.8,2,1.6,3.2,2.1c1.2,0.5,2.5,0.7,4,0.7h0.1c1.5,0,2.9-0.2,4.1-0.7
		c1.3-0.5,2.4-1.2,3.3-2.1c0.7-0.7,1.2-1.5,1.7-2.3c0.2-0.2,0.3-0.6,0.4-0.9c0.2-0.6,0.5-1.2,0.6-2c0.2-0.7,0.2-1.4,0.2-2.1
		c0-0.9-0.1-1.7-0.2-2.5c-0.2-0.8-0.3-1.6-0.7-2.2c-0.2-0.5-0.4-0.9-0.7-1.2h-4.4v7.4h-7.6L28.6,267.2L28.6,267.2z"/>
	<path class="st1" d="M21,267.5l0.3,0.2l0.1,0.1l3.9,3.2v-6.7h26v-7.1H39.9v-4.5l11.3-7.5v-11.9L38.2,242c-1-2.4-2.5-4.2-4.4-5.6
		c-1.9-1.4-4.3-2.1-7.1-2.1h-0.1c-3.6,0-6.6,1.1-8.7,3.3c-1.3,1.2-2.3,2.9-3,4.8c-0.7,2-1.1,4.4-1.1,7.3v11.7l4.9,4.1l1.9,1.6
		L21,267.5z M27.4,244.7c1.3,0,2.4,0.5,3.2,1.5c0.8,1,1.2,2.3,1.2,4.1v6.8h-9v-6.7c0-1.7,0.3-3.1,1.1-4.1
		C24.7,245.3,25.7,244.8,27.4,244.7L27.4,244.7L27.4,244.7z"/>
</g>
</svg>
