<?xml version="1.0" encoding="UTF-8" standalone="no"?>
<!-- Generator: Adobe Illustrator 22.0.1, SVG Export Plug-In . SVG Version: 6.00 Build 0)  -->

<svg
   xmlns:svg="http://www.w3.org/2000/svg"
   xmlns="http://www.w3.org/2000/svg"
   xmlns:sodipodi="http://sodipodi.sourceforge.net/DTD/sodipodi-0.dtd"
   xmlns:inkscape="http://www.inkscape.org/namespaces/inkscape"
   version="1.1"
   id="Layer_1"
   x="0px"
   y="0px"
   viewBox="0 0 64 380"
   xml:space="preserve"
   inkscape:export-xdpi="90"
   inkscape:export-ydpi="90"
   sodipodi:docname="about-paddy.svg"
   inkscape:version="0.92.2 5c3e80d, 2017-08-06"
   style="enable-background:new 0 0 64 380;"
   inkscape:export-filename="/home/tor/go/src/github.com/wagerr/wagerr/src/qt/res/images/about.png"><defs
     id="defs61"><filter
       style="color-interpolation-filters:sRGB;"
       inkscape:label="Drop Shadow"
       id="filter3759"><feFlood
         flood-opacity="0.498039"
         flood-color="rgb(0,0,0)"
         result="flood"
         id="feFlood3761" /><feComposite
         in="flood"
         in2="SourceGraphic"
         operator="in"
         result="composite1"
         id="feComposite3763" /><feGaussianBlur
         in="composite1"
         stdDeviation="3"
         result="blur"
         id="feGaussianBlur3765" /><feOffset
         dx="6"
         dy="6"
         result="offset"
         id="feOffset3767" /><feComposite
         in="SourceGraphic"
         in2="offset"
         operator="over"
         result="fbSourceGraphic"
         id="feComposite3769" /><feColorMatrix
         result="fbSourceGraphicAlpha"
         in="fbSourceGraphic"
         values="0 0 0 -1 0 0 0 0 -1 0 0 0 0 -1 0 0 0 0 1 0"
         id="feColorMatrix3819" /><feFlood
         id="feFlood3821"
         flood-opacity="0.498039"
         flood-color="rgb(0,0,0)"
         result="flood"
         in="fbSourceGraphic" /><feComposite
         id="feComposite3823"
         in2="fbSourceGraphic"
         in="flood"
         operator="in"
         result="composite1" /><feGaussianBlur
         id="feGaussianBlur3825"
         in="composite1"
         stdDeviation="3"
         result="blur" /><feOffset
         id="feOffset3827"
         dx="6"
         dy="6"
         result="offset" /><feComposite
         id="feComposite3829"
         in2="offset"
         in="fbSourceGraphic"
         operator="over"
         result="composite2" /></filter><filter
       style="color-interpolation-filters:sRGB;"
       inkscape:label="Drop Shadow"
       id="filter3771"><feFlood
         flood-opacity="0.498039"
         flood-color="rgb(0,0,0)"
         result="flood"
         id="feFlood3773" /><feComposite
         in="flood"
         in2="SourceGraphic"
         operator="in"
         result="composite1"
         id="feComposite3775" /><feGaussianBlur
         in="composite1"
         stdDeviation="3"
         result="blur"
         id="feGaussianBlur3777" /><feOffset
         dx="6"
         dy="6"
         result="offset"
         id="feOffset3779" /><feComposite
         in="SourceGraphic"
         in2="offset"
         operator="over"
         result="fbSourceGraphic"
         id="feComposite3781" /><feColorMatrix
         result="fbSourceGraphicAlpha"
         in="fbSourceGraphic"
         values="0 0 0 -1 0 0 0 0 -1 0 0 0 0 -1 0 0 0 0 1 0"
         id="feColorMatrix3831" /><feFlood
         id="feFlood3833"
         flood-opacity="0.498039"
         flood-color="rgb(0,0,0)"
         result="flood"
         in="fbSourceGraphic" /><feComposite
         id="feComposite3835"
         in2="fbSourceGraphic"
         in="flood"
         operator="in"
         result="composite1" /><feGaussianBlur
         id="feGaussianBlur3837"
         in="composite1"
         stdDeviation="3"
         result="blur" /><feOffset
         id="feOffset3839"
         dx="6"
         dy="6"
         result="offset" /><feComposite
         id="feComposite3841"
         in2="offset"
         in="fbSourceGraphic"
         operator="over"
         result="composite2" /></filter><filter
       style="color-interpolation-filters:sRGB;"
       inkscape:label="Drop Shadow"
       id="filter3783"><feFlood
         flood-opacity="0.498039"
         flood-color="rgb(0,0,0)"
         result="flood"
         id="feFlood3785" /><feComposite
         in="flood"
         in2="SourceGraphic"
         operator="in"
         result="composite1"
         id="feComposite3787" /><feGaussianBlur
         in="composite1"
         stdDeviation="3"
         result="blur"
         id="feGaussianBlur3789" /><feOffset
         dx="6"
         dy="6"
         result="offset"
         id="feOffset3791" /><feComposite
         in="SourceGraphic"
         in2="offset"
         operator="over"
         result="fbSourceGraphic"
         id="feComposite3793" /><feColorMatrix
         result="fbSourceGraphicAlpha"
         in="fbSourceGraphic"
         values="0 0 0 -1 0 0 0 0 -1 0 0 0 0 -1 0 0 0 0 1 0"
         id="feColorMatrix3843" /><feFlood
         id="feFlood3845"
         flood-opacity="0.498039"
         flood-color="rgb(0,0,0)"
         result="flood"
         in="fbSourceGraphic" /><feComposite
         id="feComposite3847"
         in2="fbSourceGraphic"
         in="flood"
         operator="in"
         result="composite1" /><feGaussianBlur
         id="feGaussianBlur3849"
         in="composite1"
         stdDeviation="3"
         result="blur" /><feOffset
         id="feOffset3851"
         dx="6"
         dy="6"
         result="offset" /><feComposite
         id="feComposite3853"
         in2="offset"
         in="fbSourceGraphic"
         operator="over"
         result="composite2" /></filter><filter
       style="color-interpolation-filters:sRGB;"
       inkscape:label="Drop Shadow"
       id="filter3795"><feFlood
         flood-opacity="0.498039"
         flood-color="rgb(0,0,0)"
         result="flood"
         id="feFlood3797" /><feComposite
         in="flood"
         in2="SourceGraphic"
         operator="in"
         result="composite1"
         id="feComposite3799" /><feGaussianBlur
         in="composite1"
         stdDeviation="3"
         result="blur"
         id="feGaussianBlur3801" /><feOffset
         dx="6"
         dy="6"
         result="offset"
         id="feOffset3803" /><feComposite
         in="SourceGraphic"
         in2="offset"
         operator="over"
         result="fbSourceGraphic"
         id="feComposite3805" /><feColorMatrix
         result="fbSourceGraphicAlpha"
         in="fbSourceGraphic"
         values="0 0 0 -1 0 0 0 0 -1 0 0 0 0 -1 0 0 0 0 1 0"
         id="feColorMatrix3855" /><feFlood
         id="feFlood3857"
         flood-opacity="0.498039"
         flood-color="rgb(0,0,0)"
         result="flood"
         in="fbSourceGraphic" /><feComposite
         id="feComposite3859"
         in2="fbSourceGraphic"
         in="flood"
         operator="in"
         result="composite1" /><feGaussianBlur
         id="feGaussianBlur3861"
         in="composite1"
         stdDeviation="3"
         result="blur" /><feOffset
         id="feOffset3863"
         dx="6"
         dy="6"
         result="offset" /><feComposite
         id="feComposite3865"
         in2="offset"
         in="fbSourceGraphic"
         operator="over"
         result="composite2" /></filter><filter
       style="color-interpolation-filters:sRGB;"
       inkscape:label="Drop Shadow"
       id="filter3807"><feFlood
         flood-opacity="0.498039"
         flood-color="rgb(0,0,0)"
         result="flood"
         id="feFlood3809" /><feComposite
         in="flood"
         in2="SourceGraphic"
         operator="in"
         result="composite1"
         id="feComposite3811" /><feGaussianBlur
         in="composite1"
         stdDeviation="3"
         result="blur"
         id="feGaussianBlur3813" /><feOffset
         dx="6"
         dy="6"
         result="offset"
         id="feOffset3815" /><feComposite
         in="SourceGraphic"
         in2="offset"
         operator="over"
         result="fbSourceGraphic"
         id="feComposite3817" /><feColorMatrix
         result="fbSourceGraphicAlpha"
         in="fbSourceGraphic"
         values="0 0 0 -1 0 0 0 0 -1 0 0 0 0 -1 0 0 0 0 1 0"
         id="feColorMatrix3867" /><feFlood
         id="feFlood3869"
         flood-opacity="0.498039"
         flood-color="rgb(0,0,0)"
         result="flood"
         in="fbSourceGraphic" /><feComposite
         id="feComposite3871"
         in2="fbSourceGraphic"
         in="flood"
         operator="in"
         result="composite1" /><feGaussianBlur
         id="feGaussianBlur3873"
         in="composite1"
         stdDeviation="3"
         result="blur" /><feOffset
         id="feOffset3875"
         dx="6"
         dy="6"
         result="offset" /><feComposite
         id="feComposite3877"
         in2="offset"
         in="fbSourceGraphic"
         operator="over"
         result="composite2" /></filter></defs><sodipodi:namedview
     pagecolor="#ffffff"
     bordercolor="#666666"
     borderopacity="1"
     objecttolerance="10"
     gridtolerance="10"
     guidetolerance="10"
     inkscape:pageopacity="0"
     inkscape:pageshadow="2"
     inkscape:window-width="1889"
     inkscape:window-height="1011"
     id="namedview59"
     showgrid="false"
     inkscape:zoom="2.1947368"
     inkscape:cx="-42.496403"
     inkscape:cy="190"
     inkscape:window-x="0"
     inkscape:window-y="0"
     inkscape:window-maximized="0"
     inkscape:current-layer="Layer_1" /><g
     id="g5"
     transform="translate(-0.16498214,-6.1035156e-6)"><path
       class="st0"
       d="M 55,11.9 C 54.7,11.3 54.1,11 53.4,11 c -4.5,0 -9,0 -13.6,0 -1.1,0 -1.8,0.4 -2.4,1.4 -1.1,2.1 -2.3,4.1 -3.5,6.1 -0.5,0.9 -1,1.7 -1.5,2.6 0,0.1 -0.1,0.1 -0.2,0.2 -0.1,-0.1 -0.1,-0.1 -0.2,-0.2 -0.5,-0.9 -1,-1.7 -1.5,-2.6 -1.2,-2 -2.4,-4.1 -3.5,-6.1 -0.5,-1 -1.2,-1.5 -2.4,-1.5 -4.5,0 -9,0 -13.6,0 -0.7,0 -1.3,0.3 -1.6,0.9 -0.4,0.6 -0.3,1.3 0.1,1.9 0.5,0.9 1,1.7 1.5,2.6 1.4,2.4 2.8,4.8 4.2,7.3 1.5,2.5 2.9,5.1 4.4,7.6 1.3,2.3 2.6,4.5 3.9,6.8 0.4,0.6 0.9,0.9 1.6,0.9 0.7,0 1.2,-0.4 1.5,-1 0.3,-0.6 0.7,-1.2 1.1,-1.8 1.2,-2 2.3,-4.1 3.5,-6.1 0.3,-0.5 0.5,-0.9 0.8,-1.5 0.3,0.5 0.6,1 0.8,1.4 1.2,2 2.3,4.1 3.5,6.1 0.4,0.6 0.7,1.2 1.1,1.8 0.3,0.6 0.8,1 1.5,1 0.7,0 1.3,-0.3 1.6,-0.9 1.3,-2.3 2.6,-4.5 3.9,-6.8 1.5,-2.5 2.9,-5.1 4.4,-7.6 1.4,-2.4 2.8,-4.8 4.2,-7.3 0.5,-0.9 1,-1.8 1.5,-2.6 0.8,-0.4 0.8,-1.1 0.5,-1.7 z M 30.1,25.3 c -1.3,2.3 -2.7,4.6 -4,7 -0.3,0.4 -0.5,0.9 -0.8,1.4 C 21.6,27.3 18,21 14.3,14.6 c 0.2,0 0.3,0 0.5,0 3,0 6,0 9,0 0.3,0 0.5,0.1 0.7,0.4 1.6,2.8 3.2,5.6 4.8,8.4 0.3,0.5 0.6,0.9 0.8,1.4 0.1,0.1 0.1,0.4 0,0.5 z m 9.2,8.4 c -0.3,-0.5 -0.6,-1 -0.8,-1.5 -1.3,-2.3 -2.7,-4.6 -4,-7 -0.1,-0.2 -0.1,-0.4 0,-0.6 0.2,-0.5 0.5,-0.9 0.8,-1.5 1.6,-2.8 3.2,-5.6 4.8,-8.4 0.2,-0.3 0.4,-0.4 0.7,-0.4 3,0 6,0 9,0 0.1,0 0.3,0 0.5,0 -3.7,6.7 -7.3,13 -11,19.4 z"
       id="path7"
       inkscape:connector-curvature="0"
       style="fill:#dd0000" /></g><g
     id="g9"
     transform="translate(-2.55,-0.57676544)"><path
       d="m 17.1,297.4 v -5.2 L 37,289.2 17.1,282 v -4.9 l 19.1,-6.7 -19.1,-3.1 v -5.1 l 27.7,5.2 v 4.9 l -21.7,7.6 21.7,8.2 v 4.8 z"
       id="path11"
       inkscape:connector-curvature="0" /><path
       d="m 38.5,260.1 c -4,0 -6.1,-2.9 -6.1,-8.8 0,-1.5 0.1,-2.8 0.4,-4.1 h -1.5 c -1.8,0 -2.7,1.3 -2.7,3.9 0,2.2 0.3,4.7 1,7.4 h -4.1 c -0.6,-2.7 -1,-5.2 -1,-7.4 0,-6 2.2,-9.1 6.7,-9.1 h 13.6 v 3 l -1.8,1.8 c 1.2,1.8 1.8,3.7 1.8,5.8 0,5 -2.1,7.5 -6.3,7.5 z m -2.6,-8.8 c 0,2.5 0.8,3.7 2.5,3.7 1.8,0 2.7,-1 2.7,-3.1 0,-1.7 -0.5,-3.3 -1.6,-4.7 h -3.3 c -0.2,1.2 -0.3,2.6 -0.3,4.1 z"
       id="path13"
       inkscape:connector-curvature="0" /><path
       d="m 43.2,219 c 5.9,0 8.9,3.6 8.9,10.7 0,2.5 -0.3,4.7 -1,6.7 H 47 c 0.6,-2 1,-4.2 1,-6.7 0,-3.7 -1.5,-5.5 -4.6,-5.5 0.6,1.5 1,3.2 1,4.9 0,6 -3.3,9.1 -9.9,9.1 -6.7,0 -10,-3.5 -10,-10.5 0,-2.4 0.3,-5.2 0.8,-8.6 h 17.9 z m -14.1,5.1 c -0.3,0.8 -0.5,2 -0.5,3.6 0,3.5 2,5.3 5.9,5.3 3.8,0 5.7,-1.5 5.7,-4.6 0,-1.5 -0.3,-2.9 -1,-4.3 z"
       id="path15"
       inkscape:connector-curvature="0" /><path
       d="m 24.5,205.6 c 0,-6.2 3.1,-9.3 9.4,-9.3 0.8,0 1.7,0.1 2.5,0.2 V 210 c 2.9,0 4.3,-2.1 4.3,-6.3 0,-2.1 -0.2,-4.1 -0.6,-6.2 h 4.1 c 0.4,1.8 0.6,4 0.6,6.5 0,7.4 -3.5,11 -10.4,11 -6.6,0.1 -9.9,-3 -9.9,-9.4 z m 8.4,4.4 v -8.7 h -0.2 c -2.8,0 -4.2,1.4 -4.2,4.3 0,2.7 1.4,4.2 4.4,4.4 z"
       id="path17"
       inkscape:connector-curvature="0" /><path
       d="M 44.8,192.5 H 24.5 v -4 l 2.6,-0.6 c -1.7,-1.8 -2.6,-3.7 -2.6,-5.7 h 4.1 c 0,1.9 0.8,3.6 2.4,5.1 h 13.8 z"
       id="path19"
       inkscape:connector-curvature="0" /><path
       d="M 44.8,179.3 H 24.5 v -4 l 2.6,-0.6 C 25.4,172.9 24.5,171 24.5,169 h 4.1 c 0,1.9 0.8,3.6 2.4,5.1 h 13.8 z"
       id="path21"
       inkscape:connector-curvature="0" /><path
       d="m 43.6,134.9 c 0.9,2.4 1.4,5.1 1.4,8.1 0,9.9 -4.8,14.9 -14.4,14.9 -9.1,0 -13.6,-5 -13.6,-14.9 0,-3 0.5,-5.7 1.4,-8.1 H 23 c -1,2.4 -1.5,5 -1.5,7.7 0,6.6 3.1,10 9.2,10 6.6,0 10,-3.3 10,-10 0,-2.8 -0.5,-5.4 -1.5,-7.7 z"
       id="path23"
       inkscape:connector-curvature="0" /><path
       d="m 34.6,131.5 c -6.8,0 -10.2,-3.4 -10.2,-10.1 0,-6.7 3.4,-10.1 10.2,-10.1 6.8,0 10.2,3.4 10.2,10.1 0,6.8 -3.4,10.1 -10.2,10.1 z m 6.3,-10 c 0,-3.3 -2.1,-4.9 -6.4,-4.9 -4.1,0 -6.2,1.6 -6.2,4.9 0,3.3 2.1,4.9 6.2,4.9 4.3,0 6.4,-1.6 6.4,-4.9 z"
       id="path25"
       inkscape:connector-curvature="0" /><path
       d="M 44.8,107.6 H 24.5 v -4 l 2.6,-0.6 c -1.7,-1.8 -2.6,-3.7 -2.6,-5.7 h 4.1 c 0,1.9 0.8,3.6 2.4,5.1 h 13.8 z"
       id="path27"
       inkscape:connector-curvature="0" /><path
       d="m 24.5,85.8 c 0,-6.2 3.1,-9.3 9.4,-9.3 0.8,0 1.7,0.1 2.5,0.2 v 13.5 c 2.9,0 4.3,-2.1 4.3,-6.3 0,-2.1 -0.2,-4.1 -0.6,-6.2 h 4.1 c 0.4,1.8 0.6,4 0.6,6.5 0,7.4 -3.5,11 -10.4,11 -6.6,0.2 -9.9,-3 -9.9,-9.4 z m 8.4,4.4 v -8.7 h -0.2 c -2.8,0 -4.2,1.4 -4.2,4.3 0,2.7 1.4,4.2 4.4,4.4 z"
       id="path29"
       inkscape:connector-curvature="0" /></g><g
     id="g43"
     transform="translate(0.83501786,-9.817099)"><path
       class="st0"
       d="m 54,322.9 c -0.3,-0.6 -0.9,-0.9 -1.6,-0.9 -4.5,0 -9,0 -13.6,0 -1.1,0 -1.8,0.4 -2.4,1.4 -1.1,2.1 -2.3,4.1 -3.5,6.1 -0.5,0.9 -1,1.7 -1.5,2.6 0,0.1 -0.1,0.1 -0.2,0.2 -0.1,-0.1 -0.1,-0.1 -0.2,-0.2 -0.5,-0.9 -1,-1.7 -1.5,-2.6 -1.2,-2 -2.4,-4.1 -3.5,-6.1 -0.5,-1 -1.2,-1.5 -2.4,-1.5 -4.5,0 -9,0 -13.6,0 -0.7,0 -1.3,0.3 -1.6,0.9 -0.4,0.6 -0.3,1.3 0.1,1.9 0.5,0.9 1,1.7 1.5,2.6 1.4,2.4 2.8,4.8 4.2,7.3 1.5,2.5 2.9,5.1 4.4,7.6 1.3,2.3 2.6,4.5 3.9,6.8 0.4,0.6 0.9,0.9 1.6,0.9 0.7,0 1.2,-0.4 1.5,-1 0.3,-0.6 0.7,-1.2 1.1,-1.8 1.2,-2 2.3,-4.1 3.5,-6.1 0.3,-0.5 0.5,-0.9 0.8,-1.5 0.3,0.5 0.6,1 0.8,1.4 1.2,2 2.3,4.1 3.5,6.1 0.4,0.6 0.7,1.2 1.1,1.8 0.3,0.6 0.8,1 1.5,1 0.7,0 1.3,-0.3 1.6,-0.9 1.3,-2.3 2.6,-4.5 3.9,-6.8 1.5,-2.5 2.9,-5.1 4.4,-7.6 1.4,-2.4 2.8,-4.8 4.2,-7.3 0.5,-0.9 1,-1.8 1.5,-2.6 0.8,-0.4 0.8,-1.1 0.5,-1.7 z m -24.9,13.4 c -1.3,2.3 -2.7,4.6 -4,7 -0.3,0.4 -0.5,0.9 -0.8,1.4 -3.7,-6.4 -7.3,-12.7 -11,-19.1 0.2,0 0.3,0 0.5,0 3,0 6,0 9,0 0.3,0 0.5,0.1 0.7,0.4 1.6,2.8 3.2,5.6 4.8,8.4 0.3,0.5 0.6,0.9 0.8,1.4 0.1,0.1 0.1,0.4 0,0.5 z m 9.2,8.4 c -0.3,-0.5 -0.6,-1 -0.8,-1.5 -1.3,-2.3 -2.7,-4.6 -4,-7 -0.1,-0.2 -0.1,-0.4 0,-0.6 0.2,-0.5 0.5,-0.9 0.8,-1.5 1.6,-2.8 3.2,-5.6 4.8,-8.4 0.2,-0.3 0.4,-0.4 0.7,-0.4 3,0 6,0 9,0 0.1,0 0.3,0 0.5,0 -3.7,6.7 -7.3,13 -11,19.4 z"
       id="path45"
       inkscape:connector-curvature="0"
       style="fill:#dd0000" /></g><g
     id="g214"
     transform="translate(-4e-7,10.016139)"><path
       d="m 6.0673834,44.348607 h 2.0800781 q 0.764974,0 1.1946615,0.351563 0.4329426,0.348307 0.4329426,0.970052 0,0.380859 -0.1432291,0.725911 -0.1432292,0.341797 -0.4101563,0.598959 -0.2897135,0.276693 -0.6901041,0.403646 -0.4003906,0.123698 -1.0058594,0.123698 H 6.6988938 L 6.373373,49.208633 H 5.1201178 Z m 1.0807292,0.908204 -0.2669271,1.357421 h 0.6933594 q 0.4427083,0 0.6770833,-0.208333 0.234375,-0.208333 0.234375,-0.605469 0,-0.263671 -0.1692708,-0.403645 -0.1660157,-0.139974 -0.4817709,-0.139974 z"
       id="path169"
       inkscape:connector-curvature="0" /><path
       d="m 11.63379,47.568008 q -0.436198,0 -0.660808,0.136719 -0.221354,0.133464 -0.221354,0.397136 0,0.198567 0.130208,0.3125 0.133464,0.113932 0.364584,0.113932 0.358073,0 0.598958,-0.214844 0.240885,-0.218099 0.322266,-0.611979 l 0.02604,-0.133464 z m 1.819661,-0.439453 -0.406901,2.080078 h -1.165365 l 0.09766,-0.540364 q -0.286459,0.325521 -0.605469,0.481771 -0.319011,0.152994 -0.69336,0.152994 -0.517578,0 -0.8235672,-0.266927 -0.3027344,-0.270182 -0.3027344,-0.725911 0,-0.696615 0.5371096,-1.064453 0.540364,-0.371094 1.555989,-0.371094 h 0.686849 l 0.01302,-0.09115 q 0.0098,-0.04557 0.0098,-0.0651 0.0033,-0.01953 0.0033,-0.03581 0,-0.214844 -0.205078,-0.322266 -0.201823,-0.110677 -0.602214,-0.110677 -0.361328,0 -0.699869,0.07487 -0.338542,0.07487 -0.654297,0.224609 l 0.175781,-0.888672 q 0.364583,-0.09115 0.745443,-0.136718 0.384114,-0.04883 0.79427,-0.04883 0.810547,0 1.204427,0.279947 0.393881,0.276693 0.393881,0.846355 0,0.110677 -0.01628,0.24414 -0.01302,0.130209 -0.04232,0.283203 z"
       id="path171"
       inkscape:connector-curvature="0" /><path
       d="m 15.999023,48.45668 q 0.449219,0 0.729167,-0.413411 0.283203,-0.413412 0.283203,-1.080729 0,-0.302735 -0.159505,-0.472005 -0.15625,-0.169271 -0.439453,-0.169271 -0.442708,0 -0.729167,0.410156 -0.286458,0.406901 -0.286458,1.044922 0,0.332031 0.152995,0.507812 0.15625,0.172526 0.449218,0.172526 z m 1.227214,-2.360026 0.377604,-1.953125 h 1.17513 l -0.986328,5.065104 h -1.17513 l 0.107422,-0.527343 q -0.266927,0.31901 -0.559896,0.472005 -0.292969,0.149739 -0.641276,0.149739 -0.615234,0 -0.973307,-0.390625 -0.358073,-0.390625 -0.358073,-1.064453 0,-0.419921 0.123698,-0.817057 0.126953,-0.397135 0.361328,-0.722656 0.296224,-0.410156 0.667318,-0.621745 0.374349,-0.211588 0.800781,-0.211588 0.374349,0 0.634765,0.152994 0.263672,0.14974 0.445964,0.46875 z"
       id="path173"
       inkscape:connector-curvature="0" /><path
       d="m 20.77767,48.45668 q 0.449219,0 0.729167,-0.413411 0.283203,-0.413412 0.283203,-1.080729 0,-0.302735 -0.159506,-0.472005 -0.15625,-0.169271 -0.439453,-0.169271 -0.442708,0 -0.729166,0.410156 -0.286459,0.406901 -0.286459,1.044922 0,0.332031 0.152995,0.507812 0.15625,0.172526 0.449219,0.172526 z m 1.227213,-2.360026 0.377605,-1.953125 h 1.17513 l -0.986328,5.065104 h -1.175131 l 0.107422,-0.527343 q -0.266927,0.31901 -0.559895,0.472005 -0.292969,0.149739 -0.641277,0.149739 -0.615234,0 -0.973307,-0.390625 -0.358073,-0.390625 -0.358073,-1.064453 0,-0.419921 0.123698,-0.817057 0.126953,-0.397135 0.361328,-0.722656 0.296224,-0.410156 0.667318,-0.621745 0.374349,-0.211588 0.800781,-0.211588 0.374349,0 0.634766,0.152994 0.263672,0.14974 0.445963,0.46875 z"
       id="path175"
       inkscape:connector-curvature="0" /><path
       d="m 23.948242,45.5628 h 1.10026 l 0.501302,2.526042 1.292318,-2.526042 h 1.246744 l -2.307942,3.990885 q -0.38737,0.673829 -0.716146,0.882162 -0.328776,0.211588 -0.849609,0.211588 h -0.706381 l 0.120443,-0.764973 h 0.367839 q 0.286458,0 0.442708,-0.09766 0.159505,-0.0944 0.283203,-0.335286 l 0.107422,-0.195313 z"
       id="path177"
       inkscape:connector-curvature="0" /><path
       d="m 31.262694,44.348607 h 2.080078 q 0.764974,0 1.194662,0.351563 0.432942,0.348307 0.432942,0.970052 0,0.380859 -0.143229,0.725911 -0.143229,0.341797 -0.410156,0.598959 -0.289714,0.276693 -0.690104,0.403646 -0.400391,0.123698 -1.00586,0.123698 h -0.826823 l -0.32552,1.686197 h -1.253256 z m 1.080729,0.908204 -0.266927,1.357421 h 0.693359 q 0.442709,0 0.677084,-0.208333 0.234375,-0.208333 0.234375,-0.605469 0,-0.263671 -0.169271,-0.403645 -0.166016,-0.139974 -0.481771,-0.139974 z"
       id="path179"
       inkscape:connector-curvature="0" /><path
       d="m 37.558267,46.308243 q -0.452474,0 -0.745443,0.410156 -0.292969,0.410156 -0.292969,1.044922 0,0.345052 0.15625,0.527344 0.159506,0.179036 0.46224,0.179036 0.452474,0 0.745443,-0.410156 0.292968,-0.413412 0.292968,-1.051432 0,-0.341797 -0.159505,-0.520834 -0.15625,-0.179036 -0.458984,-0.179036 z m 0.0944,-0.833333 q 0.813802,0 1.279297,0.413411 0.465495,0.413411 0.465495,1.126302 0,0.413412 -0.146485,0.804036 -0.146484,0.38737 -0.426432,0.709636 -0.332031,0.384114 -0.784505,0.579427 -0.452474,0.195312 -1.009115,0.195312 -0.804036,0 -1.269531,-0.413411 -0.46224,-0.413411 -0.46224,-1.126302 0,-0.410156 0.14974,-0.800781 0.14974,-0.39388 0.429687,-0.719401 0.325521,-0.377604 0.77474,-0.572917 0.452474,-0.195312 0.999349,-0.195312 z"
       id="path181"
       inkscape:connector-curvature="0" /><path
       d="m 40.221028,45.5628 h 1.074219 L 41.4222,48.069311 42.52246,45.5628 h 0.924479 l 0.133464,2.5 1.09375,-2.5 h 1.145833 l -1.666666,3.645833 h -1.23698 l -0.120442,-2.50651 -1.113281,2.50651 h -1.207683 z"
       id="path183"
       inkscape:connector-curvature="0" /><path
       d="m 49.993165,47.522436 -0.03906,0.185546 h -2.727864 q 0,0.01953 -0.0033,0.05859 -0.0033,0.03581 -0.0033,0.05534 0,0.354817 0.211589,0.530599 0.214843,0.175781 0.641276,0.175781 0.367838,0 0.774739,-0.110677 0.410157,-0.110677 0.859375,-0.328776 l -0.17895,0.904951 q -0.426432,0.15625 -0.84961,0.231119 -0.419921,0.07813 -0.856119,0.07813 -0.852865,0 -1.31836,-0.39388 -0.462239,-0.39388 -0.462239,-1.113281 0,-0.416667 0.146484,-0.807292 0.14974,-0.39388 0.432943,-0.719401 0.335286,-0.390625 0.800781,-0.592448 0.46875,-0.201822 1.038412,-0.201822 0.738932,0 1.171875,0.39388 0.436197,0.39388 0.436197,1.061198 0,0.130208 -0.01953,0.276692 -0.01628,0.14323 -0.05534,0.315756 z m -1.100261,-0.533855 q 0.0098,-0.04232 0.01302,-0.08464 0.0065,-0.04557 0.0065,-0.08789 0,-0.260416 -0.15625,-0.413411 -0.15625,-0.152995 -0.423177,-0.152995 -0.341796,0 -0.582682,0.188802 -0.23763,0.185547 -0.364583,0.55013 z"
       id="path185"
       inkscape:connector-curvature="0" /><path
       d="m 53.746417,46.555639 q -0.120442,-0.06836 -0.266927,-0.104167 -0.146484,-0.03581 -0.315755,-0.03581 -0.445964,0 -0.742187,0.286458 -0.292969,0.286458 -0.397136,0.826823 l -0.332031,1.679687 h -1.16862 l 0.709636,-3.64583 h 1.171875 l -0.126954,0.625 q 0.23112,-0.345052 0.576172,-0.527344 0.348308,-0.185546 0.771485,-0.185546 0.06185,0 0.139974,0.0065 0.07813,0.0065 0.185546,0.01953 z"
       id="path187"
       inkscape:connector-curvature="0" /><path
       d="m 57.366212,44.348607 0.387369,0.738933 0.38737,-0.738933 h 0.738932 v 1.881511 h -0.553385 v -1.422526 l -0.445964,0.833333 h -0.247395 l -0.445964,-0.833333 v 1.422526 h -0.559896 v -1.881511 z m -1.106771,0 v 0.465495 h -0.566407 v 1.416016 h -0.559895 v -1.416016 h -0.559896 v -0.465495 z"
       id="path189"
       inkscape:connector-curvature="0" /></g><g
     id="g294"
     transform="translate(-4e-7,311.19904)"><path
       inkscape:connector-curvature="0"
       id="path272"
       d="m 6.0673834,44.348607 h 2.0800781 q 0.764974,0 1.1946615,0.351563 0.4329426,0.348307 0.4329426,0.970052 0,0.380859 -0.1432291,0.725911 -0.1432292,0.341797 -0.4101563,0.598959 -0.2897135,0.276693 -0.6901041,0.403646 -0.4003906,0.123698 -1.0058594,0.123698 H 6.6988938 L 6.373373,49.208633 H 5.1201178 Z m 1.0807292,0.908204 -0.2669271,1.357421 h 0.6933594 q 0.4427083,0 0.6770833,-0.208333 0.234375,-0.208333 0.234375,-0.605469 0,-0.263671 -0.1692708,-0.403645 -0.1660157,-0.139974 -0.4817709,-0.139974 z" /><path
       inkscape:connector-curvature="0"
       id="path274"
       d="m 11.63379,47.568008 q -0.436198,0 -0.660808,0.136719 -0.221354,0.133464 -0.221354,0.397136 0,0.198567 0.130208,0.3125 0.133464,0.113932 0.364584,0.113932 0.358073,0 0.598958,-0.214844 0.240885,-0.218099 0.322266,-0.611979 l 0.02604,-0.133464 z m 1.819661,-0.439453 -0.406901,2.080078 h -1.165365 l 0.09766,-0.540364 q -0.286459,0.325521 -0.605469,0.481771 -0.319011,0.152994 -0.69336,0.152994 -0.517578,0 -0.8235672,-0.266927 -0.3027344,-0.270182 -0.3027344,-0.725911 0,-0.696615 0.5371096,-1.064453 0.540364,-0.371094 1.555989,-0.371094 h 0.686849 l 0.01302,-0.09115 q 0.0098,-0.04557 0.0098,-0.0651 0.0033,-0.01953 0.0033,-0.03581 0,-0.214844 -0.205078,-0.322266 -0.201823,-0.110677 -0.602214,-0.110677 -0.361328,0 -0.699869,0.07487 -0.338542,0.07487 -0.654297,0.224609 l 0.175781,-0.888672 q 0.364583,-0.09115 0.745443,-0.136718 0.384114,-0.04883 0.79427,-0.04883 0.810547,0 1.204427,0.279947 0.393881,0.276693 0.393881,0.846355 0,0.110677 -0.01628,0.24414 -0.01302,0.130209 -0.04232,0.283203 z" /><path
       inkscape:connector-curvature="0"
       id="path276"
       d="m 15.999023,48.45668 q 0.449219,0 0.729167,-0.413411 0.283203,-0.413412 0.283203,-1.080729 0,-0.302735 -0.159505,-0.472005 -0.15625,-0.169271 -0.439453,-0.169271 -0.442708,0 -0.729167,0.410156 -0.286458,0.406901 -0.286458,1.044922 0,0.332031 0.152995,0.507812 0.15625,0.172526 0.449218,0.172526 z m 1.227214,-2.360026 0.377604,-1.953125 h 1.17513 l -0.986328,5.065104 h -1.17513 l 0.107422,-0.527343 q -0.266927,0.31901 -0.559896,0.472005 -0.292969,0.149739 -0.641276,0.149739 -0.615234,0 -0.973307,-0.390625 -0.358073,-0.390625 -0.358073,-1.064453 0,-0.419921 0.123698,-0.817057 0.126953,-0.397135 0.361328,-0.722656 0.296224,-0.410156 0.667318,-0.621745 0.374349,-0.211588 0.800781,-0.211588 0.374349,0 0.634765,0.152994 0.263672,0.14974 0.445964,0.46875 z" /><path
       inkscape:connector-curvature="0"
       id="path278"
       d="m 20.77767,48.45668 q 0.449219,0 0.729167,-0.413411 0.283203,-0.413412 0.283203,-1.080729 0,-0.302735 -0.159506,-0.472005 -0.15625,-0.169271 -0.439453,-0.169271 -0.442708,0 -0.729166,0.410156 -0.286459,0.406901 -0.286459,1.044922 0,0.332031 0.152995,0.507812 0.15625,0.172526 0.449219,0.172526 z m 1.227213,-2.360026 0.377605,-1.953125 h 1.17513 l -0.986328,5.065104 h -1.175131 l 0.107422,-0.527343 q -0.266927,0.31901 -0.559895,0.472005 -0.292969,0.149739 -0.641277,0.149739 -0.615234,0 -0.973307,-0.390625 -0.358073,-0.390625 -0.358073,-1.064453 0,-0.419921 0.123698,-0.817057 0.126953,-0.397135 0.361328,-0.722656 0.296224,-0.410156 0.667318,-0.621745 0.374349,-0.211588 0.800781,-0.211588 0.374349,0 0.634766,0.152994 0.263672,0.14974 0.445963,0.46875 z" /><path
       inkscape:connector-curvature="0"
       id="path280"
       d="m 23.948242,45.5628 h 1.10026 l 0.501302,2.526042 1.292318,-2.526042 h 1.246744 l -2.307942,3.990885 q -0.38737,0.673829 -0.716146,0.882162 -0.328776,0.211588 -0.849609,0.211588 h -0.706381 l 0.120443,-0.764973 h 0.367839 q 0.286458,0 0.442708,-0.09766 0.159505,-0.0944 0.283203,-0.335286 l 0.107422,-0.195313 z" /><path
       inkscape:connector-curvature="0"
       id="path282"
       d="m 31.262694,44.348607 h 2.080078 q 0.764974,0 1.194662,0.351563 0.432942,0.348307 0.432942,0.970052 0,0.380859 -0.143229,0.725911 -0.143229,0.341797 -0.410156,0.598959 -0.289714,0.276693 -0.690104,0.403646 -0.400391,0.123698 -1.00586,0.123698 h -0.826823 l -0.32552,1.686197 h -1.253256 z m 1.080729,0.908204 -0.266927,1.357421 h 0.693359 q 0.442709,0 0.677084,-0.208333 0.234375,-0.208333 0.234375,-0.605469 0,-0.263671 -0.169271,-0.403645 -0.166016,-0.139974 -0.481771,-0.139974 z" /><path
       inkscape:connector-curvature="0"
       id="path284"
       d="m 37.558267,46.308243 q -0.452474,0 -0.745443,0.410156 -0.292969,0.410156 -0.292969,1.044922 0,0.345052 0.15625,0.527344 0.159506,0.179036 0.46224,0.179036 0.452474,0 0.745443,-0.410156 0.292968,-0.413412 0.292968,-1.051432 0,-0.341797 -0.159505,-0.520834 -0.15625,-0.179036 -0.458984,-0.179036 z m 0.0944,-0.833333 q 0.813802,0 1.279297,0.413411 0.465495,0.413411 0.465495,1.126302 0,0.413412 -0.146485,0.804036 -0.146484,0.38737 -0.426432,0.709636 -0.332031,0.384114 -0.784505,0.579427 -0.452474,0.195312 -1.009115,0.195312 -0.804036,0 -1.269531,-0.413411 -0.46224,-0.413411 -0.46224,-1.126302 0,-0.410156 0.14974,-0.800781 0.14974,-0.39388 0.429687,-0.719401 0.325521,-0.377604 0.77474,-0.572917 0.452474,-0.195312 0.999349,-0.195312 z" /><path
       inkscape:connector-curvature="0"
       id="path286"
       d="m 40.221028,45.5628 h 1.074219 L 41.4222,48.069311 42.52246,45.5628 h 0.924479 l 0.133464,2.5 1.09375,-2.5 h 1.145833 l -1.666666,3.645833 h -1.23698 l -0.120442,-2.50651 -1.113281,2.50651 h -1.207683 z" /><path
       inkscape:connector-curvature="0"
       id="path288"
       d="m 49.993165,47.522436 -0.03906,0.185546 h -2.727864 q 0,0.01953 -0.0033,0.05859 -0.0033,0.03581 -0.0033,0.05534 0,0.354817 0.211589,0.530599 0.214843,0.175781 0.641276,0.175781 0.367838,0 0.774739,-0.110677 0.410157,-0.110677 0.859375,-0.328776 l -0.17895,0.904951 q -0.426432,0.15625 -0.84961,0.231119 -0.419921,0.07813 -0.856119,0.07813 -0.852865,0 -1.31836,-0.39388 -0.462239,-0.39388 -0.462239,-1.113281 0,-0.416667 0.146484,-0.807292 0.14974,-0.39388 0.432943,-0.719401 0.335286,-0.390625 0.800781,-0.592448 0.46875,-0.201822 1.038412,-0.201822 0.738932,0 1.171875,0.39388 0.436197,0.39388 0.436197,1.061198 0,0.130208 -0.01953,0.276692 -0.01628,0.14323 -0.05534,0.315756 z m -1.100261,-0.533855 q 0.0098,-0.04232 0.01302,-0.08464 0.0065,-0.04557 0.0065,-0.08789 0,-0.260416 -0.15625,-0.413411 -0.15625,-0.152995 -0.423177,-0.152995 -0.341796,0 -0.582682,0.188802 -0.23763,0.185547 -0.364583,0.55013 z" /><path
       inkscape:connector-curvature="0"
       id="path290"
       d="m 53.746417,46.555639 q -0.120442,-0.06836 -0.266927,-0.104167 -0.146484,-0.03581 -0.315755,-0.03581 -0.445964,0 -0.742187,0.286458 -0.292969,0.286458 -0.397136,0.826823 l -0.332031,1.679687 h -1.16862 l 0.709636,-3.64583 h 1.171875 l -0.126954,0.625 q 0.23112,-0.345052 0.576172,-0.527344 0.348308,-0.185546 0.771485,-0.185546 0.06185,0 0.139974,0.0065 0.07813,0.0065 0.185546,0.01953 z" /><path
       inkscape:connector-curvature="0"
       id="path292"
       d="m 57.366212,44.348607 0.387369,0.738933 0.38737,-0.738933 h 0.738932 v 1.881511 h -0.553385 v -1.422526 l -0.445964,0.833333 h -0.247395 l -0.445964,-0.833333 v 1.422526 h -0.559896 v -1.881511 z m -1.106771,0 v 0.465495 h -0.566407 v 1.416016 h -0.559895 v -1.416016 h -0.559896 v -0.465495 z" /></g></svg>